<svg id="Layer_1" data-name="Layer 1" xmlns="http://www.w3.org/2000/svg" xmlns:xlink="http://www.w3.org/1999/xlink" viewBox="0 0 1199.88 724.68"><defs><style>.cls-1,.cls-3,.cls-4{fill:none;}.cls-2{fill:#fff;}.cls-3{stroke:#e6e6e6;}.cls-4{stroke:#999;}.cls-5{clip-path:url(#clip-path);}.cls-6{fill:#e54b34;}.cls-7{fill:#4cbad4;}.cls-8{fill:#009f86;}.cls-9{fill:#3b5387;}.cls-10{fill:#f29a7f;}.cls-11{fill:#8491b3;}.cls-12{fill:#91d1c1;}.cls-13,.cls-17{isolation:isolate;}.cls-13{font-size:14px;fill:#666;font-family:ArialMT, Arial;}.cls-14{letter-spacing:-0.06em;}.cls-15{clip-path:url(#clip-path-8);}.cls-16{clip-path:url(#clip-path-15);}.cls-17{font-size:12px;fill:#333;font-family:Arial-BoldMT, Arial;font-weight:700;}.cls-18{letter-spacing:-0.04em;}.cls-19{clip-path:url(#clip-path-22);}</style><clipPath id="clip-path"><rect class="cls-1" x="44" y="41" width="546" height="256"/></clipPath><clipPath id="clip-path-8"><rect class="cls-1" x="647.88" y="44" width="546" height="256"/></clipPath><clipPath id="clip-path-15"><rect class="cls-1" x="44" y="365.68" width="546" height="256"/></clipPath><clipPath id="clip-path-22"><rect class="cls-1" x="643.88" y="365.68" width="546" height="256"/></clipPath></defs><rect class="cls-2" width="600" height="400"/><rect class="cls-1" x="44" y="41" width="546" height="256"/><path class="cls-3" d="M590.5,41V297"/><path class="cls-3" d="M43.5,41V297"/><path class="cls-3" d="M44,297.5H590"/><path class="cls-3" d="M44,233.5H590"/><path class="cls-3" d="M44,169.5H590"/><path class="cls-3" d="M44,105.5H590"/><path class="cls-3" d="M44,40.5H590"/><rect class="cls-1" x="44" y="41" width="546" height="256"/><path class="cls-4" d="M590.5,297v10"/><path class="cls-4" d="M43.5,297v10"/><path class="cls-4" d="M44,297.5H590"/><path class="cls-4" d="M44,297.5H34"/><path class="cls-4" d="M44,233.5H34"/><path class="cls-4" d="M44,169.5H34"/><path class="cls-4" d="M44,105.5H34"/><path class="cls-4" d="M44,40.5H34"/><path class="cls-4" d="M43.5,41V297"/><g class="cls-5"><rect class="cls-6" x="160" y="64" width="33" height="234"/></g><g class="cls-5"><rect class="cls-7" x="207" y="55" width="33" height="243"/></g><g class="cls-5"><rect class="cls-8" x="254" y="55" width="33" height="243"/></g><g class="cls-5"><rect class="cls-9" x="301" y="61" width="33" height="237"/></g><g class="cls-5"><rect class="cls-10" x="347" y="61" width="33" height="237"/></g><g class="cls-5"><rect class="cls-11" x="394" y="68" width="33" height="230"/></g><g class="cls-5"><rect class="cls-12" x="441" y="64" width="33" height="234"/></g><text class="cls-13" transform="translate(265.75 21)">GSE15222</text><text class="cls-13" transform="translate(269.15 319)">Mean<tspan class="cls-14" x="35.02" y="0"> </tspan><tspan x="38.14" y="0">Accuracy</tspan></text><text class="cls-13" transform="translate(21.21 303)">0</text><text class="cls-13" transform="translate(9.54 239)">0.2</text><text class="cls-13" transform="translate(9.54 175)">0.4</text><text class="cls-13" transform="translate(9.54 111)">0.6</text><text class="cls-13" transform="translate(9.54 47)">0.8</text><rect class="cls-2" x="599.88" y="3" width="600" height="400"/><rect class="cls-1" x="647.88" y="44" width="546" height="256"/><path class="cls-3" d="M1194.38,44V300"/><path class="cls-3" d="M647.38,44V300"/><path class="cls-3" d="M647.88,300.5h546"/><path class="cls-3" d="M647.88,249.5h546"/><path class="cls-3" d="M647.88,198.5h546"/><path class="cls-3" d="M647.88,146.5h546"/><path class="cls-3" d="M647.88,95.5h546"/><path class="cls-3" d="M647.88,43.5h546"/><rect class="cls-1" x="647.88" y="44" width="546" height="256"/><path class="cls-4" d="M1194.38,300v10"/><path class="cls-4" d="M647.38,300v10"/><path class="cls-4" d="M647.88,300.5h546"/><path class="cls-4" d="M647.88,300.5h-10"/><path class="cls-4" d="M647.88,249.5h-10"/><path class="cls-4" d="M647.88,198.5h-10"/><path class="cls-4" d="M647.88,146.5h-10"/><path class="cls-4" d="M647.88,95.5h-10"/><path class="cls-4" d="M647.88,43.5h-10"/><path class="cls-4" d="M647.38,44V300"/><g class="cls-15"><rect class="cls-6" x="763.88" y="73" width="33" height="228"/></g><g class="cls-15"><rect class="cls-7" x="810.88" y="60" width="33" height="241"/></g><g class="cls-15"><rect class="cls-8" x="857.88" y="83" width="33" height="218"/></g><g class="cls-15"><rect class="cls-9" x="904.88" y="68" width="33" height="233"/></g><g class="cls-15"><rect class="cls-10" x="950.88" y="71" width="33" height="230"/></g><g class="cls-15"><rect class="cls-11" x="997.88" y="65" width="33" height="236"/></g><g class="cls-15"><rect class="cls-12" x="1044.88" y="114" width="33" height="187"/></g><text class="cls-13" transform="translate(865.74 24)">GSE173955</text><text class="cls-13" transform="translate(873.03 322)">Mean<tspan class="cls-14" x="35.02" y="0"> </tspan><tspan x="38.14" y="0">Accuracy</tspan></text><text class="cls-13" transform="translate(625.1 306)">0</text><text class="cls-13" transform="translate(613.42 255)">0.2</text><text class="cls-13" transform="translate(613.42 204)">0.4</text><text class="cls-13" transform="translate(613.42 153)">0.6</text><text class="cls-13" transform="translate(613.42 101)">0.8</text><text class="cls-13" transform="translate(625.1 50)">1</text><rect class="cls-2" y="324.68" width="600" height="400"/><rect class="cls-1" x="44" y="365.68" width="546" height="256"/><path class="cls-3" d="M590.5,365.68v256"/><path class="cls-3" d="M43.5,365.68v256"/><path class="cls-3" d="M44,622.18H590"/><path class="cls-3" d="M44,590.18H590"/><path class="cls-3" d="M44,558.18H590"/><path class="cls-3" d="M44,526.18H590"/><path class="cls-3" d="M44,494.18H590"/><path class="cls-3" d="M44,462.18H590"/><path class="cls-3" d="M44,430.18H590"/><path class="cls-3" d="M44,398.18H590"/><path class="cls-3" d="M44,365.18H590"/><rect class="cls-1" x="44" y="365.68" width="546" height="256"/><path class="cls-4" d="M590.5,621.68v10"/><path class="cls-4" d="M43.5,621.68v10"/><path class="cls-4" d="M44,622.18H590"/><path class="cls-4" d="M44,622.18H34"/><path class="cls-4" d="M44,590.18H34"/><path class="cls-4" d="M44,558.18H34"/><path class="cls-4" d="M44,526.18H34"/><path class="cls-4" d="M44,494.18H34"/><path class="cls-4" d="M44,462.18H34"/><path class="cls-4" d="M44,430.18H34"/><path class="cls-4" d="M44,398.18H34"/><path class="cls-4" d="M44,365.18H34"/><path class="cls-4" d="M43.5,365.68v256"/><g class="cls-16"><rect class="cls-6" x="160" y="401.68" width="33" height="221"/></g><g class="cls-16"><rect class="cls-7" x="207" y="395.68" width="33" height="227"/></g><g class="cls-16"><rect class="cls-8" x="254" y="443.68" width="33" height="179"/></g><g class="cls-16"><rect class="cls-9" x="301" y="420.68" width="33" height="202"/></g><g class="cls-16"><rect class="cls-10" x="347" y="395.68" width="33" height="227"/></g><g class="cls-16"><rect class="cls-11" x="394" y="420.68" width="33" height="202"/></g><g class="cls-16"><rect class="cls-12" x="441" y="411.68" width="33" height="211"/></g><text class="cls-13" transform="translate(261.86 345.68)">GSE203206</text><rect class="cls-1" x="61" y="656.68" width="478" height="53"/><text class="cls-17" transform="translate(90 674.68)">No FS</text><path class="cls-6" d="M77,663.68h0a6,6,0,0,1,6,6h0a6,6,0,0,1-6,6h0a6,6,0,0,1-6-6h0A6,6,0,0,1,77,663.68Z"/><text class="cls-17" transform="translate(250.94 674.68)">GWOG<tspan class="cls-18" x="39.33" y="0">A</tspan></text><path class="cls-7" d="M237.94,663.68h0a6,6,0,0,1,6,6h0a6,6,0,0,1-6,6h0a6,6,0,0,1-6-6h0A6,6,0,0,1,237.94,663.68Z"/><text class="cls-17" transform="translate(411.88 674.68)"><tspan class="cls-14">V</tspan><tspan x="7.34" y="0">ariance Threshold</tspan></text><path class="cls-8" d="M398.88,663.68h0a6,6,0,0,1,6,6h0a6,6,0,0,1-6,6h0a6,6,0,0,1-6-6h0A6,6,0,0,1,398.88,663.68Z"/><text class="cls-17" transform="translate(90 688.68)">Select K Best</text><path class="cls-9" d="M77,677.68h0a6,6,0,0,1,6,6h0a6,6,0,0,1-6,6h0a6,6,0,0,1-6-6h0A6,6,0,0,1,77,677.68Z"/><text class="cls-17" transform="translate(250.94 688.68)">RFE</text><path class="cls-10" d="M237.94,677.68h0a6,6,0,0,1,6,6h0a6,6,0,0,1-6,6h0a6,6,0,0,1-6-6h0A6,6,0,0,1,237.94,677.68Z"/><text class="cls-17" transform="translate(411.88 688.68)">BPSO</text><path class="cls-11" d="M398.88,677.68h0a6,6,0,0,1,6,6h0a6,6,0,0,1-6,6h0a6,6,0,0,1-6-6h0A6,6,0,0,1,398.88,677.68Z"/><text class="cls-17" transform="translate(90 702.68)">S<tspan class="cls-18" x="8" y="0">A</tspan></text><path class="cls-12" d="M77,691.68h0a6,6,0,0,1,6,6h0a6,6,0,0,1-6,6h0a6,6,0,0,1-6-6h0A6,6,0,0,1,77,691.68Z"/><text class="cls-13" transform="translate(269.15 643.68)">Mean<tspan class="cls-14" x="35.02" y="0"> </tspan><tspan x="38.14" y="0">Accuracy</tspan></text><text class="cls-13" transform="translate(21.21 627.68)">0</text><text class="cls-13" transform="translate(9.54 595.68)">0.1</text><text class="cls-13" transform="translate(9.54 563.68)">0.2</text><text class="cls-13" transform="translate(9.54 531.68)">0.3</text><text class="cls-13" transform="translate(9.54 499.68)">0.4</text><text class="cls-13" transform="translate(9.54 467.68)">0.5</text><text class="cls-13" transform="translate(9.54 435.68)">0.6</text><text class="cls-13" transform="translate(9.54 403.68)">0.7</text><text class="cls-13" transform="translate(9.54 371.68)">0.8</text><rect class="cls-2" x="599.88" y="324.68" width="600" height="400"/><rect class="cls-1" x="643.88" y="365.68" width="546" height="256"/><path class="cls-3" d="M1190.38,365.68v256"/><path class="cls-3" d="M643.38,365.68v256"/><path class="cls-3" d="M643.88,622.18h546"/><path class="cls-3" d="M643.88,571.18h546"/><path class="cls-3" d="M643.88,520.18h546"/><path class="cls-3" d="M643.88,468.18h546"/><path class="cls-3" d="M643.88,417.18h546"/><path class="cls-3" d="M643.88,365.18h546"/><rect class="cls-1" x="643.88" y="365.68" width="546" height="256"/><path class="cls-4" d="M1190.38,621.68v10"/><path class="cls-4" d="M643.38,621.68v10"/><path class="cls-4" d="M643.88,622.18h546"/><path class="cls-4" d="M643.88,622.18h-10"/><path class="cls-4" d="M643.88,571.18h-10"/><path class="cls-4" d="M643.88,520.18h-10"/><path class="cls-4" d="M643.88,468.18h-10"/><path class="cls-4" d="M643.88,417.18h-10"/><path class="cls-4" d="M643.88,365.18h-10"/><path class="cls-4" d="M643.38,365.68v256"/><g class="cls-19"><rect class="cls-6" x="759.88" y="450.68" width="33" height="172"/></g><g class="cls-19"><rect class="cls-7" x="806.88" y="425.68" width="33" height="197"/></g><g class="cls-19"><rect class="cls-8" x="853.88" y="448.68" width="33" height="174"/></g><g class="cls-19"><rect class="cls-9" x="900.88" y="417.68" width="33" height="205"/></g><g class="cls-19"><rect class="cls-10" x="946.88" y="417.68" width="33" height="205"/></g><g class="cls-19"><rect class="cls-11" x="993.88" y="466.68" width="33" height="156"/></g><g class="cls-19"><rect class="cls-12" x="1040.88" y="440.68" width="33" height="182"/></g><text class="cls-13" transform="translate(869.53 345.68)">GSE1297</text><rect class="cls-1" x="660.88" y="656.68" width="478" height="53"/><text class="cls-17" transform="translate(689.88 674.68)">No FS</text><path class="cls-6" d="M676.88,663.68h0a6,6,0,0,1,6,6h0a6,6,0,0,1-6,6h0a6,6,0,0,1-6-6h0A6,6,0,0,1,676.88,663.68Z"/><text class="cls-17" transform="translate(850.82 674.68)">GWOG<tspan class="cls-18" x="39.33" y="0">A</tspan></text><path class="cls-7" d="M837.82,663.68h0a6,6,0,0,1,6,6h0a6,6,0,0,1-6,6h0a6,6,0,0,1-6-6h0A6,6,0,0,1,837.82,663.68Z"/><text class="cls-17" transform="translate(1011.76 674.68)"><tspan class="cls-14">V</tspan><tspan x="7.34" y="0">ariance Threshold</tspan></text><path class="cls-8" d="M998.76,663.68h0a6,6,0,0,1,6,6h0a6,6,0,0,1-6,6h0a6,6,0,0,1-6-6h0A6,6,0,0,1,998.76,663.68Z"/><text class="cls-17" transform="translate(689.88 688.68)">Select K Best</text><path class="cls-9" d="M676.88,677.68h0a6,6,0,0,1,6,6h0a6,6,0,0,1-6,6h0a6,6,0,0,1-6-6h0A6,6,0,0,1,676.88,677.68Z"/><text class="cls-17" transform="translate(850.82 688.68)">RFE</text><path class="cls-10" d="M837.82,677.68h0a6,6,0,0,1,6,6h0a6,6,0,0,1-6,6h0a6,6,0,0,1-6-6h0A6,6,0,0,1,837.82,677.68Z"/><text class="cls-17" transform="translate(1011.76 688.68)">BPSO</text><path class="cls-11" d="M998.76,677.68h0a6,6,0,0,1,6,6h0a6,6,0,0,1-6,6h0a6,6,0,0,1-6-6h0A6,6,0,0,1,998.76,677.68Z"/><text class="cls-17" transform="translate(689.88 702.68)">S<tspan class="cls-18" x="8" y="0">A</tspan></text><path class="cls-12" d="M676.88,691.68h0a6,6,0,0,1,6,6h0a6,6,0,0,1-6,6h0a6,6,0,0,1-6-6h0A6,6,0,0,1,676.88,691.68Z"/><text class="cls-13" transform="translate(869.03 643.68)">Mean<tspan class="cls-14" x="35.02" y="0"> </tspan><tspan x="38.14" y="0">Accuracy</tspan></text><text class="cls-13" transform="translate(621.1 627.68)">0</text><text class="cls-13" transform="translate(609.42 576.68)">0.2</text><text class="cls-13" transform="translate(609.42 525.68)">0.4</text><text class="cls-13" transform="translate(609.42 474.68)">0.6</text><text class="cls-13" transform="translate(609.42 422.68)">0.8</text><text class="cls-13" transform="translate(621.1 371.68)">1</text></svg>