<?xml version="1.0" standalone="no"?><!DOCTYPE svg PUBLIC "-//W3C//DTD SVG 1.1//EN" "http://www.w3.org/Graphics/SVG/1.1/DTD/svg11.dtd"><svg xmlns:xlink="http://www.w3.org/1999/xlink" version="1.1" class="highcharts-root" style="font-family:&quot;Lucida Grande&quot;, &quot;Lucida Sans Unicode&quot;, Arial, Helvetica, sans-serif;font-size:12px;" xmlns="http://www.w3.org/2000/svg" width="600" height="400" viewBox="0 0 600 400"><desc>Created with Highcharts 9.3.1</desc><defs><clipPath id="highcharts-qv6osba-20-"><rect x="0" y="0" width="546" height="256" fill="none"></rect></clipPath><clipPath id="highcharts-qv6osba-23-"><rect x="0" y="0" width="546" height="256" fill="none"></rect></clipPath></defs><rect fill="#ffffff" class="highcharts-background" x="0" y="0" width="600" height="400" rx="0" ry="0"></rect><rect fill="none" class="highcharts-plot-background" x="44" y="41" width="546" height="256"></rect><g class="highcharts-grid highcharts-xaxis-grid" data-z-index="1"><path fill="none" stroke="#e6e6e6" stroke-width="1" stroke-dasharray="none" data-z-index="1" class="highcharts-grid-line" d="M 316.5 41 L 316.5 297" opacity="1"></path><path fill="none" stroke="#e6e6e6" stroke-width="1" stroke-dasharray="none" data-z-index="1" class="highcharts-grid-line" d="M 590.5 41 L 590.5 297" opacity="1"></path><path fill="none" stroke="#e6e6e6" stroke-width="1" stroke-dasharray="none" data-z-index="1" class="highcharts-grid-line" d="M 43.5 41 L 43.5 297" opacity="1"></path></g><g class="highcharts-grid highcharts-yaxis-grid" data-z-index="1"><path fill="none" stroke-dasharray="none" class="highcharts-minor-grid-line" d="M 44 297.5 L 590 297.5" opacity="1"></path><path fill="none" stroke-dasharray="none" class="highcharts-minor-grid-line" d="M 44 287.5 L 590 287.5" opacity="1"></path><path fill="none" stroke-dasharray="none" class="highcharts-minor-grid-line" d="M 44 277.5 L 590 277.5" opacity="1"></path><path fill="none" stroke-dasharray="none" class="highcharts-minor-grid-line" d="M 44 266.5 L 590 266.5" opacity="1"></path><path fill="none" stroke-dasharray="none" class="highcharts-minor-grid-line" d="M 44 256.5 L 590 256.5" opacity="1"></path><path fill="none" stroke-dasharray="none" class="highcharts-minor-grid-line" d="M 44 246.5 L 590 246.5" opacity="1"></path><path fill="none" stroke-dasharray="none" class="highcharts-minor-grid-line" d="M 44 236.5 L 590 236.5" opacity="1"></path><path fill="none" stroke-dasharray="none" class="highcharts-minor-grid-line" d="M 44 225.5 L 590 225.5" opacity="1"></path><path fill="none" stroke-dasharray="none" class="highcharts-minor-grid-line" d="M 44 215.5 L 590 215.5" opacity="1"></path><path fill="none" stroke-dasharray="none" class="highcharts-minor-grid-line" d="M 44 205.5 L 590 205.5" opacity="1"></path><path fill="none" stroke-dasharray="none" class="highcharts-minor-grid-line" d="M 44 195.5 L 590 195.5" opacity="1"></path><path fill="none" stroke-dasharray="none" class="highcharts-minor-grid-line" d="M 44 184.5 L 590 184.5" opacity="1"></path><path fill="none" stroke-dasharray="none" class="highcharts-minor-grid-line" d="M 44 174.5 L 590 174.5" opacity="1"></path><path fill="none" stroke-dasharray="none" class="highcharts-minor-grid-line" d="M 44 164.5 L 590 164.5" opacity="1"></path><path fill="none" stroke-dasharray="none" class="highcharts-minor-grid-line" d="M 44 154.5 L 590 154.5" opacity="1"></path><path fill="none" stroke-dasharray="none" class="highcharts-minor-grid-line" d="M 44 143.5 L 590 143.5" opacity="1"></path><path fill="none" stroke-dasharray="none" class="highcharts-minor-grid-line" d="M 44 133.5 L 590 133.5" opacity="1"></path><path fill="none" stroke-dasharray="none" class="highcharts-minor-grid-line" d="M 44 123.5 L 590 123.5" opacity="1"></path><path fill="none" stroke-dasharray="none" class="highcharts-minor-grid-line" d="M 44 113.5 L 590 113.5" opacity="1"></path><path fill="none" stroke-dasharray="none" class="highcharts-minor-grid-line" d="M 44 102.5 L 590 102.5" opacity="1"></path><path fill="none" stroke-dasharray="none" class="highcharts-minor-grid-line" d="M 44 92.5 L 590 92.5" opacity="1"></path><path fill="none" stroke-dasharray="none" class="highcharts-minor-grid-line" d="M 44 82.5 L 590 82.5" opacity="1"></path><path fill="none" stroke-dasharray="none" class="highcharts-minor-grid-line" d="M 44 72.5 L 590 72.5" opacity="1"></path><path fill="none" stroke-dasharray="none" class="highcharts-minor-grid-line" d="M 44 61.5 L 590 61.5" opacity="1"></path><path fill="none" stroke-dasharray="none" class="highcharts-minor-grid-line" d="M 44 51.5 L 590 51.5" opacity="1"></path><path fill="none" stroke="#e6e6e6" stroke-width="1" stroke-dasharray="none" data-z-index="1" class="highcharts-grid-line" d="M 44 297.5 L 590 297.5" opacity="1"></path><path fill="none" stroke="#e6e6e6" stroke-width="1" stroke-dasharray="none" data-z-index="1" class="highcharts-grid-line" d="M 44 246.5 L 590 246.5" opacity="1"></path><path fill="none" stroke="#e6e6e6" stroke-width="1" stroke-dasharray="none" data-z-index="1" class="highcharts-grid-line" d="M 44 195.5 L 590 195.5" opacity="1"></path><path fill="none" stroke="#e6e6e6" stroke-width="1" stroke-dasharray="none" data-z-index="1" class="highcharts-grid-line" d="M 44 143.5 L 590 143.5" opacity="1"></path><path fill="none" stroke="#e6e6e6" stroke-width="1" stroke-dasharray="none" data-z-index="1" class="highcharts-grid-line" d="M 44 92.5 L 590 92.5" opacity="1"></path><path fill="none" stroke="#e6e6e6" stroke-width="1" stroke-dasharray="none" data-z-index="1" class="highcharts-grid-line" d="M 44 40.5 L 590 40.5" opacity="1"></path></g><rect fill="none" class="highcharts-plot-border" data-z-index="1" x="44" y="41" width="546" height="256"></rect><g class="highcharts-axis highcharts-xaxis" data-z-index="2"><path fill="none" class="highcharts-tick" stroke="#999" stroke-width="1" d="M 316.5 297 L 316.5 307" opacity="1"></path><path fill="none" class="highcharts-tick" stroke="#999" stroke-width="1" d="M 590.5 297 L 590.5 307" opacity="1"></path><path fill="none" class="highcharts-tick" stroke="#999" stroke-width="1" d="M 43.5 297 L 43.5 307" opacity="1"></path><path fill="none" class="highcharts-axis-line" stroke="#999" stroke-width="1" data-z-index="7" d="M 44 297.5 L 590 297.5"></path></g><g class="highcharts-axis highcharts-yaxis" data-z-index="2"><path fill="none" class="highcharts-tick" stroke="#999" stroke-width="1" d="M 44 297.5 L 34 297.5" opacity="1"></path><path fill="none" class="highcharts-tick" stroke="#999" stroke-width="1" d="M 44 246.5 L 34 246.5" opacity="1"></path><path fill="none" class="highcharts-tick" stroke="#999" stroke-width="1" d="M 44 195.5 L 34 195.5" opacity="1"></path><path fill="none" class="highcharts-tick" stroke="#999" stroke-width="1" d="M 44 143.5 L 34 143.5" opacity="1"></path><path fill="none" class="highcharts-tick" stroke="#999" stroke-width="1" d="M 44 92.5 L 34 92.5" opacity="1"></path><path fill="none" class="highcharts-tick" stroke="#999" stroke-width="1" d="M 44 40.5 L 34 40.5" opacity="1"></path><path fill="none" class="highcharts-axis-line" stroke="#999" stroke-width="1" data-z-index="7" d="M 43.5 41 L 43.5 297"></path></g><g class="highcharts-series-group" data-z-index="3"><g class="highcharts-series highcharts-series-0 highcharts-column-series highcharts-color-0" data-z-index="0.1" opacity="1" transform="translate(44,41) scale(1 1)" clip-path="url(#highcharts-qv6osba-23-)"><rect x="58" y="30" width="17" height="227" fill="#E54B34" opacity="1" class="highcharts-point highcharts-color-0"></rect><rect x="331" y="33" width="17" height="224" fill="#E54B34" opacity="1" class="highcharts-point highcharts-color-0"></rect></g><g class="highcharts-markers highcharts-series-0 highcharts-column-series highcharts-color-0" data-z-index="0.1" opacity="1" transform="translate(44,41) scale(1 1)" clip-path="none"></g><g class="highcharts-series highcharts-series-1 highcharts-column-series highcharts-color-1" data-z-index="0.1" opacity="1" transform="translate(44,41) scale(1 1)" clip-path="url(#highcharts-qv6osba-23-)"><rect x="82" y="20" width="17" height="237" fill="#4CBAD4" opacity="1" class="highcharts-point highcharts-color-1"></rect><rect x="355" y="24" width="17" height="233" fill="#4CBAD4" opacity="1" class="highcharts-point highcharts-color-1"></rect></g><g class="highcharts-markers highcharts-series-1 highcharts-column-series highcharts-color-1" data-z-index="0.1" opacity="1" transform="translate(44,41) scale(1 1)" clip-path="none"></g><g class="highcharts-series highcharts-series-2 highcharts-column-series highcharts-color-2" data-z-index="0.1" opacity="1" transform="translate(44,41) scale(1 1)" clip-path="url(#highcharts-qv6osba-23-)"><rect x="105" y="41" width="17" height="216" fill="#009F86" opacity="1" class="highcharts-point highcharts-color-2"></rect><rect x="378" y="46" width="17" height="211" fill="#009F86" opacity="1" class="highcharts-point highcharts-color-2"></rect></g><g class="highcharts-markers highcharts-series-2 highcharts-column-series highcharts-color-2" data-z-index="0.1" opacity="1" transform="translate(44,41) scale(1 1)" clip-path="none"></g><g class="highcharts-series highcharts-series-3 highcharts-column-series highcharts-color-3" data-z-index="0.1" opacity="1" transform="translate(44,41) scale(1 1)" clip-path="url(#highcharts-qv6osba-23-)"><rect x="128" y="26" width="17" height="231" fill="#3B5387" opacity="1" class="highcharts-point highcharts-color-3"></rect><rect x="401" y="29" width="17" height="228" fill="#3B5387" opacity="1" class="highcharts-point highcharts-color-3"></rect></g><g class="highcharts-markers highcharts-series-3 highcharts-column-series highcharts-color-3" data-z-index="0.1" opacity="1" transform="translate(44,41) scale(1 1)" clip-path="none"></g><g class="highcharts-series highcharts-series-4 highcharts-column-series highcharts-color-4" data-z-index="0.1" opacity="1" transform="translate(44,41) scale(1 1)" clip-path="url(#highcharts-qv6osba-23-)"><rect x="152" y="28" width="17" height="229" fill="#F29A7F" opacity="1" class="highcharts-point highcharts-color-4"></rect><rect x="425" y="37" width="17" height="220" fill="#F29A7F" opacity="1" class="highcharts-point highcharts-color-4"></rect></g><g class="highcharts-markers highcharts-series-4 highcharts-column-series highcharts-color-4" data-z-index="0.1" opacity="1" transform="translate(44,41) scale(1 1)" clip-path="none"></g><g class="highcharts-series highcharts-series-5 highcharts-column-series highcharts-color-5" data-z-index="0.1" opacity="1" transform="translate(44,41) scale(1 1)" clip-path="url(#highcharts-qv6osba-23-)"><rect x="175" y="20" width="17" height="237" fill="#8491B3" opacity="1" class="highcharts-point highcharts-color-5"></rect><rect x="448" y="24" width="17" height="233" fill="#8491B3" opacity="1" class="highcharts-point highcharts-color-5"></rect></g><g class="highcharts-markers highcharts-series-5 highcharts-column-series highcharts-color-5" data-z-index="0.1" opacity="1" transform="translate(44,41) scale(1 1)" clip-path="none"></g><g class="highcharts-series highcharts-series-6 highcharts-column-series highcharts-color-6" data-z-index="0.1" opacity="1" transform="translate(44,41) scale(1 1)" clip-path="url(#highcharts-qv6osba-23-)"><rect x="199" y="76" width="17" height="181" fill="#91D1C1" opacity="1" class="highcharts-point highcharts-color-6"></rect><rect x="472" y="77" width="17" height="180" fill="#91D1C1" opacity="1" class="highcharts-point highcharts-color-6"></rect></g><g class="highcharts-markers highcharts-series-6 highcharts-column-series highcharts-color-6" data-z-index="0.1" opacity="1" transform="translate(44,41) scale(1 1)" clip-path="none"></g></g><text x="300" text-anchor="middle" class="highcharts-title" data-z-index="4" style="color:#666666;font-size:14px;font-family:Arial;fill:#666666;" y="21">GSE173955</text><text x="300" text-anchor="middle" class="highcharts-subtitle" data-z-index="4" style="color:#666666;fill:#666666;" y="40"></text><text x="10" text-anchor="start" class="highcharts-caption" data-z-index="4" style="color:#666666;fill:#666666;" y="397"></text><g class="highcharts-legend highcharts-no-tooltip" data-z-index="7" transform="translate(61,332)"><rect fill="none" class="highcharts-legend-box" rx="0" ry="0" x="0" y="0" width="478" height="53" visibility="visible"></rect><g data-z-index="1"><g><g class="highcharts-legend-item highcharts-column-series highcharts-color-0 highcharts-series-0" data-z-index="1" transform="translate(8,3)"><text x="21" style="color:#333333;cursor:pointer;font-size:12px;font-weight:bold;fill:#333333;" text-anchor="start" data-z-index="2" y="15">No FS</text><rect x="2" y="4" width="12" height="12" fill="#E54B34" rx="6" ry="6" class="highcharts-point" data-z-index="3"></rect></g><g class="highcharts-legend-item highcharts-column-series highcharts-color-1 highcharts-series-1" data-z-index="1" transform="translate(168.9375,3)"><text x="21" y="15" style="color:#333333;cursor:pointer;font-size:12px;font-weight:bold;fill:#333333;" text-anchor="start" data-z-index="2">GWOGA</text><rect x="2" y="4" width="12" height="12" fill="#4CBAD4" rx="6" ry="6" class="highcharts-point" data-z-index="3"></rect></g><g class="highcharts-legend-item highcharts-column-series highcharts-color-2 highcharts-series-2" data-z-index="1" transform="translate(329.875,3)"><text x="21" y="15" style="color:#333333;cursor:pointer;font-size:12px;font-weight:bold;fill:#333333;" text-anchor="start" data-z-index="2">Variance Threshold</text><rect x="2" y="4" width="12" height="12" fill="#009F86" rx="6" ry="6" class="highcharts-point" data-z-index="3"></rect></g><g class="highcharts-legend-item highcharts-column-series highcharts-color-3 highcharts-series-3" data-z-index="1" transform="translate(8,17)"><text x="21" y="15" style="color:#333333;cursor:pointer;font-size:12px;font-weight:bold;fill:#333333;" text-anchor="start" data-z-index="2">Select K Best</text><rect x="2" y="4" width="12" height="12" fill="#3B5387" rx="6" ry="6" class="highcharts-point" data-z-index="3"></rect></g><g class="highcharts-legend-item highcharts-column-series highcharts-color-4 highcharts-series-4" data-z-index="1" transform="translate(168.9375,17)"><text x="21" y="15" style="color:#333333;cursor:pointer;font-size:12px;font-weight:bold;fill:#333333;" text-anchor="start" data-z-index="2">RFE</text><rect x="2" y="4" width="12" height="12" fill="#F29A7F" rx="6" ry="6" class="highcharts-point" data-z-index="3"></rect></g><g class="highcharts-legend-item highcharts-column-series highcharts-color-5 highcharts-series-5" data-z-index="1" transform="translate(329.875,17)"><text x="21" y="15" style="color:#333333;cursor:pointer;font-size:12px;font-weight:bold;fill:#333333;" text-anchor="start" data-z-index="2">BPSO</text><rect x="2" y="4" width="12" height="12" fill="#8491B3" rx="6" ry="6" class="highcharts-point" data-z-index="3"></rect></g><g class="highcharts-legend-item highcharts-column-series highcharts-color-6 highcharts-series-6" data-z-index="1" transform="translate(8,31)"><text x="21" y="15" style="color:#333333;cursor:pointer;font-size:12px;font-weight:bold;fill:#333333;" text-anchor="start" data-z-index="2">SA</text><rect x="2" y="4" width="12" height="12" fill="#91D1C1" rx="6" ry="6" class="highcharts-point" data-z-index="3"></rect></g></g></g></g><g class="highcharts-axis-labels highcharts-xaxis-labels" data-z-index="7"><text x="180.5" style="color:#666666;cursor:default;font-size:14px;font-family:Arial;fill:#666666;" text-anchor="middle" transform="translate(0,0)" y="319" opacity="1">Mean Precision</text><text x="453.5" style="color:#666666;cursor:default;font-size:14px;font-family:Arial;fill:#666666;" text-anchor="middle" transform="translate(0,0)" y="319" opacity="1">Mean Recall</text></g><g class="highcharts-axis-labels highcharts-yaxis-labels" data-z-index="7"><text x="29" style="color:#666666;cursor:default;font-size:14px;font-family:Arial;fill:#666666;" text-anchor="end" transform="translate(0,0)" y="303" opacity="1">0</text><text x="29" style="color:#666666;cursor:default;font-size:14px;font-family:Arial;fill:#666666;" text-anchor="end" transform="translate(0,0)" y="252" opacity="1">0.2</text><text x="29" style="color:#666666;cursor:default;font-size:14px;font-family:Arial;fill:#666666;" text-anchor="end" transform="translate(0,0)" y="201" opacity="1">0.4</text><text x="29" style="color:#666666;cursor:default;font-size:14px;font-family:Arial;fill:#666666;" text-anchor="end" transform="translate(0,0)" y="150" opacity="1">0.6</text><text x="29" style="color:#666666;cursor:default;font-size:14px;font-family:Arial;fill:#666666;" text-anchor="end" transform="translate(0,0)" y="98" opacity="1">0.8</text><text x="29" style="color:#666666;cursor:default;font-size:14px;font-family:Arial;fill:#666666;" text-anchor="end" transform="translate(0,0)" y="47" opacity="1">1</text></g></svg>