<?xml version="1.0" standalone="no"?><!DOCTYPE svg PUBLIC "-//W3C//DTD SVG 1.1//EN" "http://www.w3.org/Graphics/SVG/1.1/DTD/svg11.dtd"><svg xmlns:xlink="http://www.w3.org/1999/xlink" version="1.1" class="highcharts-root" style="font-family:&quot;Lucida Grande&quot;, &quot;Lucida Sans Unicode&quot;, Arial, Helvetica, sans-serif;font-size:12px;" xmlns="http://www.w3.org/2000/svg" width="600" height="400" viewBox="0 0 600 400"><desc>Created with Highcharts 9.3.1</desc><defs><clipPath id="highcharts-qv6osba-209-"><rect x="0" y="0" width="538" height="256" fill="none"></rect></clipPath><clipPath id="highcharts-qv6osba-211-"><rect x="0" y="0" width="538" height="256" fill="none"></rect></clipPath></defs><rect fill="#ffffff" class="highcharts-background" x="0" y="0" width="600" height="400" rx="0" ry="0"></rect><rect fill="none" class="highcharts-plot-background" x="52" y="41" width="538" height="256"></rect><g class="highcharts-grid highcharts-xaxis-grid" data-z-index="1"><path fill="none" stroke="#e6e6e6" stroke-width="1" stroke-dasharray="none" data-z-index="1" class="highcharts-grid-line" d="M 590.5 41 L 590.5 297" opacity="1"></path><path fill="none" stroke="#e6e6e6" stroke-width="1" stroke-dasharray="none" data-z-index="1" class="highcharts-grid-line" d="M 51.5 41 L 51.5 297" opacity="1"></path></g><g class="highcharts-grid highcharts-yaxis-grid" data-z-index="1"><path fill="none" stroke-dasharray="none" class="highcharts-minor-grid-line" d="M 52 297.5 L 590 297.5" opacity="1"></path><path fill="none" stroke-dasharray="none" class="highcharts-minor-grid-line" d="M 52 290.5 L 590 290.5" opacity="1"></path><path fill="none" stroke-dasharray="none" class="highcharts-minor-grid-line" d="M 52 282.5 L 590 282.5" opacity="1"></path><path fill="none" stroke-dasharray="none" class="highcharts-minor-grid-line" d="M 52 275.5 L 590 275.5" opacity="1"></path><path fill="none" stroke-dasharray="none" class="highcharts-minor-grid-line" d="M 52 268.5 L 590 268.5" opacity="1"></path><path fill="none" stroke-dasharray="none" class="highcharts-minor-grid-line" d="M 52 260.5 L 590 260.5" opacity="1"></path><path fill="none" stroke-dasharray="none" class="highcharts-minor-grid-line" d="M 52 253.5 L 590 253.5" opacity="1"></path><path fill="none" stroke-dasharray="none" class="highcharts-minor-grid-line" d="M 52 246.5 L 590 246.5" opacity="1"></path><path fill="none" stroke-dasharray="none" class="highcharts-minor-grid-line" d="M 52 238.5 L 590 238.5" opacity="1"></path><path fill="none" stroke-dasharray="none" class="highcharts-minor-grid-line" d="M 52 231.5 L 590 231.5" opacity="1"></path><path fill="none" stroke-dasharray="none" class="highcharts-minor-grid-line" d="M 52 224.5 L 590 224.5" opacity="1"></path><path fill="none" stroke-dasharray="none" class="highcharts-minor-grid-line" d="M 52 217.5 L 590 217.5" opacity="1"></path><path fill="none" stroke-dasharray="none" class="highcharts-minor-grid-line" d="M 52 209.5 L 590 209.5" opacity="1"></path><path fill="none" stroke-dasharray="none" class="highcharts-minor-grid-line" d="M 52 202.5 L 590 202.5" opacity="1"></path><path fill="none" stroke-dasharray="none" class="highcharts-minor-grid-line" d="M 52 195.5 L 590 195.5" opacity="1"></path><path fill="none" stroke-dasharray="none" class="highcharts-minor-grid-line" d="M 52 187.5 L 590 187.5" opacity="1"></path><path fill="none" stroke-dasharray="none" class="highcharts-minor-grid-line" d="M 52 180.5 L 590 180.5" opacity="1"></path><path fill="none" stroke-dasharray="none" class="highcharts-minor-grid-line" d="M 52 173.5 L 590 173.5" opacity="1"></path><path fill="none" stroke-dasharray="none" class="highcharts-minor-grid-line" d="M 52 165.5 L 590 165.5" opacity="1"></path><path fill="none" stroke-dasharray="none" class="highcharts-minor-grid-line" d="M 52 158.5 L 590 158.5" opacity="1"></path><path fill="none" stroke-dasharray="none" class="highcharts-minor-grid-line" d="M 52 151.5 L 590 151.5" opacity="1"></path><path fill="none" stroke-dasharray="none" class="highcharts-minor-grid-line" d="M 52 143.5 L 590 143.5" opacity="1"></path><path fill="none" stroke-dasharray="none" class="highcharts-minor-grid-line" d="M 52 136.5 L 590 136.5" opacity="1"></path><path fill="none" stroke-dasharray="none" class="highcharts-minor-grid-line" d="M 52 129.5 L 590 129.5" opacity="1"></path><path fill="none" stroke-dasharray="none" class="highcharts-minor-grid-line" d="M 52 121.5 L 590 121.5" opacity="1"></path><path fill="none" stroke-dasharray="none" class="highcharts-minor-grid-line" d="M 52 114.5 L 590 114.5" opacity="1"></path><path fill="none" stroke-dasharray="none" class="highcharts-minor-grid-line" d="M 52 107.5 L 590 107.5" opacity="1"></path><path fill="none" stroke-dasharray="none" class="highcharts-minor-grid-line" d="M 52 100.5 L 590 100.5" opacity="1"></path><path fill="none" stroke-dasharray="none" class="highcharts-minor-grid-line" d="M 52 92.5 L 590 92.5" opacity="1"></path><path fill="none" stroke-dasharray="none" class="highcharts-minor-grid-line" d="M 52 85.5 L 590 85.5" opacity="1"></path><path fill="none" stroke-dasharray="none" class="highcharts-minor-grid-line" d="M 52 78.5 L 590 78.5" opacity="1"></path><path fill="none" stroke-dasharray="none" class="highcharts-minor-grid-line" d="M 52 70.5 L 590 70.5" opacity="1"></path><path fill="none" stroke-dasharray="none" class="highcharts-minor-grid-line" d="M 52 63.5 L 590 63.5" opacity="1"></path><path fill="none" stroke-dasharray="none" class="highcharts-minor-grid-line" d="M 52 56.5 L 590 56.5" opacity="1"></path><path fill="none" stroke-dasharray="none" class="highcharts-minor-grid-line" d="M 52 48.5 L 590 48.5" opacity="1"></path><path fill="none" stroke="#e6e6e6" stroke-width="1" stroke-dasharray="none" data-z-index="1" class="highcharts-grid-line" d="M 52 297.5 L 590 297.5" opacity="1"></path><path fill="none" stroke="#e6e6e6" stroke-width="1" stroke-dasharray="none" data-z-index="1" class="highcharts-grid-line" d="M 52 260.5 L 590 260.5" opacity="1"></path><path fill="none" stroke="#e6e6e6" stroke-width="1" stroke-dasharray="none" data-z-index="1" class="highcharts-grid-line" d="M 52 224.5 L 590 224.5" opacity="1"></path><path fill="none" stroke="#e6e6e6" stroke-width="1" stroke-dasharray="none" data-z-index="1" class="highcharts-grid-line" d="M 52 187.5 L 590 187.5" opacity="1"></path><path fill="none" stroke="#e6e6e6" stroke-width="1" stroke-dasharray="none" data-z-index="1" class="highcharts-grid-line" d="M 52 151.5 L 590 151.5" opacity="1"></path><path fill="none" stroke="#e6e6e6" stroke-width="1" stroke-dasharray="none" data-z-index="1" class="highcharts-grid-line" d="M 52 114.5 L 590 114.5" opacity="1"></path><path fill="none" stroke="#e6e6e6" stroke-width="1" stroke-dasharray="none" data-z-index="1" class="highcharts-grid-line" d="M 52 78.5 L 590 78.5" opacity="1"></path><path fill="none" stroke="#e6e6e6" stroke-width="1" stroke-dasharray="none" data-z-index="1" class="highcharts-grid-line" d="M 52 40.5 L 590 40.5" opacity="1"></path></g><rect fill="none" class="highcharts-plot-border" data-z-index="1" x="52" y="41" width="538" height="256"></rect><g class="highcharts-axis highcharts-xaxis" data-z-index="2"><path fill="none" class="highcharts-tick" stroke="#999" stroke-width="1" d="M 590.5 297 L 590.5 307" opacity="1"></path><path fill="none" class="highcharts-tick" stroke="#999" stroke-width="1" d="M 51.5 297 L 51.5 307" opacity="1"></path><path fill="none" class="highcharts-axis-line" stroke="#999" stroke-width="1" data-z-index="7" d="M 52 297.5 L 590 297.5"></path></g><g class="highcharts-axis highcharts-yaxis" data-z-index="2"><path fill="none" class="highcharts-tick" stroke="#999" stroke-width="1" d="M 52 297.5 L 42 297.5" opacity="1"></path><path fill="none" class="highcharts-tick" stroke="#999" stroke-width="1" d="M 52 260.5 L 42 260.5" opacity="1"></path><path fill="none" class="highcharts-tick" stroke="#999" stroke-width="1" d="M 52 224.5 L 42 224.5" opacity="1"></path><path fill="none" class="highcharts-tick" stroke="#999" stroke-width="1" d="M 52 187.5 L 42 187.5" opacity="1"></path><path fill="none" class="highcharts-tick" stroke="#999" stroke-width="1" d="M 52 151.5 L 42 151.5" opacity="1"></path><path fill="none" class="highcharts-tick" stroke="#999" stroke-width="1" d="M 52 114.5 L 42 114.5" opacity="1"></path><path fill="none" class="highcharts-tick" stroke="#999" stroke-width="1" d="M 52 78.5 L 42 78.5" opacity="1"></path><path fill="none" class="highcharts-tick" stroke="#999" stroke-width="1" d="M 52 40.5 L 42 40.5" opacity="1"></path><path fill="none" class="highcharts-axis-line" stroke="#999" stroke-width="1" data-z-index="7" d="M 51.5 41 L 51.5 297"></path></g><g class="highcharts-series-group" data-z-index="3"><g class="highcharts-series highcharts-series-0 highcharts-column-series highcharts-color-0" data-z-index="0.1" opacity="1" transform="translate(52,41) scale(1 1)" clip-path="url(#highcharts-qv6osba-211-)"><rect x="115" y="58" width="33" height="199" fill="#E54B34" opacity="1" class="highcharts-point highcharts-color-0"></rect></g><g class="highcharts-markers highcharts-series-0 highcharts-column-series highcharts-color-0" data-z-index="0.1" opacity="1" transform="translate(52,41) scale(1 1)" clip-path="none"></g><g class="highcharts-series highcharts-series-1 highcharts-column-series highcharts-color-1" data-z-index="0.1" opacity="1" transform="translate(52,41) scale(1 1)" clip-path="url(#highcharts-qv6osba-211-)"><rect x="161" y="209" width="33" height="48" fill="#4CBAD4" opacity="1" class="highcharts-point highcharts-color-1"></rect></g><g class="highcharts-markers highcharts-series-1 highcharts-column-series highcharts-color-1" data-z-index="0.1" opacity="1" transform="translate(52,41) scale(1 1)" clip-path="none"></g><g class="highcharts-series highcharts-series-2 highcharts-column-series highcharts-color-2" data-z-index="0.1" opacity="1" transform="translate(52,41) scale(1 1)" clip-path="url(#highcharts-qv6osba-211-)"><rect x="207" y="200" width="33" height="57" fill="#009F86" opacity="1" class="highcharts-point highcharts-color-2"></rect></g><g class="highcharts-markers highcharts-series-2 highcharts-column-series highcharts-color-2" data-z-index="0.1" opacity="1" transform="translate(52,41) scale(1 1)" clip-path="none"></g><g class="highcharts-series highcharts-series-3 highcharts-column-series highcharts-color-3" data-z-index="0.1" opacity="1" transform="translate(52,41) scale(1 1)" clip-path="url(#highcharts-qv6osba-211-)"><rect x="253" y="165" width="33" height="92" fill="#3B5387" opacity="1" class="highcharts-point highcharts-color-3"></rect></g><g class="highcharts-markers highcharts-series-3 highcharts-column-series highcharts-color-3" data-z-index="0.1" opacity="1" transform="translate(52,41) scale(1 1)" clip-path="none"></g><g class="highcharts-series highcharts-series-4 highcharts-column-series highcharts-color-4" data-z-index="0.1" opacity="1" transform="translate(52,41) scale(1 1)" clip-path="url(#highcharts-qv6osba-211-)"><rect x="299" y="141" width="33" height="116" fill="#F29A7F" opacity="1" class="highcharts-point highcharts-color-4"></rect></g><g class="highcharts-markers highcharts-series-4 highcharts-column-series highcharts-color-4" data-z-index="0.1" opacity="1" transform="translate(52,41) scale(1 1)" clip-path="none"></g><g class="highcharts-series highcharts-series-5 highcharts-column-series highcharts-color-5" data-z-index="0.1" opacity="1" transform="translate(52,41) scale(1 1)" clip-path="url(#highcharts-qv6osba-211-)"><rect x="345" y="161" width="33" height="96" fill="#8491B3" opacity="1" class="highcharts-point highcharts-color-5"></rect></g><g class="highcharts-markers highcharts-series-5 highcharts-column-series highcharts-color-5" data-z-index="0.1" opacity="1" transform="translate(52,41) scale(1 1)" clip-path="none"></g><g class="highcharts-series highcharts-series-6 highcharts-column-series highcharts-color-6" data-z-index="0.1" opacity="1" transform="translate(52,41) scale(1 1)" clip-path="url(#highcharts-qv6osba-211-)"><rect x="391" y="28" width="33" height="229" fill="#91D1C1" opacity="1" class="highcharts-point highcharts-color-6"></rect></g><g class="highcharts-markers highcharts-series-6 highcharts-column-series highcharts-color-6" data-z-index="0.1" opacity="1" transform="translate(52,41) scale(1 1)" clip-path="none"></g></g><text x="300" text-anchor="middle" class="highcharts-title" data-z-index="4" style="color:#666666;font-size:14px;font-family:Arial;fill:#666666;" y="21">GSE1297</text><text x="300" text-anchor="middle" class="highcharts-subtitle" data-z-index="4" style="color:#666666;fill:#666666;" y="40"></text><text x="10" text-anchor="start" class="highcharts-caption" data-z-index="4" style="color:#666666;fill:#666666;" y="397"></text><g class="highcharts-legend highcharts-no-tooltip" data-z-index="7" transform="translate(61,332)"><rect fill="none" class="highcharts-legend-box" rx="0" ry="0" x="0" y="0" width="478" height="53" visibility="visible"></rect><g data-z-index="1"><g><g class="highcharts-legend-item highcharts-column-series highcharts-color-0 highcharts-series-0" data-z-index="1" transform="translate(8,3)"><text x="21" style="color:#333333;cursor:pointer;font-size:12px;font-weight:bold;fill:#333333;" text-anchor="start" data-z-index="2" y="15">No FS</text><rect x="2" y="4" width="12" height="12" fill="#E54B34" rx="6" ry="6" class="highcharts-point" data-z-index="3"></rect></g><g class="highcharts-legend-item highcharts-column-series highcharts-color-1 highcharts-series-1" data-z-index="1" transform="translate(168.9375,3)"><text x="21" y="15" style="color:#333333;cursor:pointer;font-size:12px;font-weight:bold;fill:#333333;" text-anchor="start" data-z-index="2">GWOGA</text><rect x="2" y="4" width="12" height="12" fill="#4CBAD4" rx="6" ry="6" class="highcharts-point" data-z-index="3"></rect></g><g class="highcharts-legend-item highcharts-column-series highcharts-color-2 highcharts-series-2" data-z-index="1" transform="translate(329.875,3)"><text x="21" y="15" style="color:#333333;cursor:pointer;font-size:12px;font-weight:bold;fill:#333333;" text-anchor="start" data-z-index="2">Variance Threshold</text><rect x="2" y="4" width="12" height="12" fill="#009F86" rx="6" ry="6" class="highcharts-point" data-z-index="3"></rect></g><g class="highcharts-legend-item highcharts-column-series highcharts-color-3 highcharts-series-3" data-z-index="1" transform="translate(8,17)"><text x="21" y="15" style="color:#333333;cursor:pointer;font-size:12px;font-weight:bold;fill:#333333;" text-anchor="start" data-z-index="2">Select K Best</text><rect x="2" y="4" width="12" height="12" fill="#3B5387" rx="6" ry="6" class="highcharts-point" data-z-index="3"></rect></g><g class="highcharts-legend-item highcharts-column-series highcharts-color-4 highcharts-series-4" data-z-index="1" transform="translate(168.9375,17)"><text x="21" y="15" style="color:#333333;cursor:pointer;font-size:12px;font-weight:bold;fill:#333333;" text-anchor="start" data-z-index="2">RFE</text><rect x="2" y="4" width="12" height="12" fill="#F29A7F" rx="6" ry="6" class="highcharts-point" data-z-index="3"></rect></g><g class="highcharts-legend-item highcharts-column-series highcharts-color-5 highcharts-series-5" data-z-index="1" transform="translate(329.875,17)"><text x="21" y="15" style="color:#333333;cursor:pointer;font-size:12px;font-weight:bold;fill:#333333;" text-anchor="start" data-z-index="2">BPSO</text><rect x="2" y="4" width="12" height="12" fill="#8491B3" rx="6" ry="6" class="highcharts-point" data-z-index="3"></rect></g><g class="highcharts-legend-item highcharts-column-series highcharts-color-6 highcharts-series-6" data-z-index="1" transform="translate(8,31)"><text x="21" y="15" style="color:#333333;cursor:pointer;font-size:12px;font-weight:bold;fill:#333333;" text-anchor="start" data-z-index="2">SA</text><rect x="2" y="4" width="12" height="12" fill="#91D1C1" rx="6" ry="6" class="highcharts-point" data-z-index="3"></rect></g></g></g></g><g class="highcharts-axis-labels highcharts-xaxis-labels" data-z-index="7"><text x="321" style="color:#666666;cursor:default;font-size:14px;font-family:Arial;fill:#666666;" text-anchor="middle" transform="translate(0,0)" y="319" opacity="1">Mean Fitness</text></g><g class="highcharts-axis-labels highcharts-yaxis-labels" data-z-index="7"><text x="37" style="color:#666666;cursor:default;font-size:14px;font-family:Arial;fill:#666666;" text-anchor="end" transform="translate(0,0)" y="303" opacity="1">0</text><text x="37" style="color:#666666;cursor:default;font-size:14px;font-family:Arial;fill:#666666;" text-anchor="end" transform="translate(0,0)" y="267" opacity="1">0.25</text><text x="37" style="color:#666666;cursor:default;font-size:14px;font-family:Arial;fill:#666666;" text-anchor="end" transform="translate(0,0)" y="230" opacity="1">0.5</text><text x="37" style="color:#666666;cursor:default;font-size:14px;font-family:Arial;fill:#666666;" text-anchor="end" transform="translate(0,0)" y="194" opacity="1">0.75</text><text x="37" style="color:#666666;cursor:default;font-size:14px;font-family:Arial;fill:#666666;" text-anchor="end" transform="translate(0,0)" y="157" opacity="1">1</text><text x="37" style="color:#666666;cursor:default;font-size:14px;font-family:Arial;fill:#666666;" text-anchor="end" transform="translate(0,0)" y="120" opacity="1">1.25</text><text x="37" style="color:#666666;cursor:default;font-size:14px;font-family:Arial;fill:#666666;" text-anchor="end" transform="translate(0,0)" y="84" opacity="1">1.5</text><text x="37" style="color:#666666;cursor:default;font-size:14px;font-family:Arial;fill:#666666;" text-anchor="end" transform="translate(0,0)" y="47" opacity="1">1.75</text></g></svg>