<svg version="1.1" class="highcharts-root" style="font-family:&quot;Lucida Grande&quot;, &quot;Lucida Sans Unicode&quot;, Arial, Helvetica, sans-serif;font-size:12px;" xmlns="http://www.w3.org/2000/svg" width="500" height="301" viewBox="0 0 500 301"><rect fill="#ffffff" class="highcharts-background" x="0.0" y="0.0" width="500" height="301" rx="0" ry="0"/><desc>Created with Highcharts 9.3.1</desc><defs><clipPath id="highcharts-8v9giky-14161-"><rect x="0" y="0" width="253" height="236" fill="none"/></clipPath><clipPath id="highcharts-8v9giky-14167-"><rect x="0" y="0" width="253" height="236" fill="none"/></clipPath></defs><rect fill="#ffffff" class="highcharts-background" x="0" y="0" width="500" height="301" rx="0" ry="0"/><rect fill="none" class="highcharts-plot-background" x="72" y="10" width="253" height="236"/><g class="highcharts-pane-group" data-z-index="0"/><g class="highcharts-grid highcharts-xaxis-grid" data-z-index="1"><path fill="none" stroke-dasharray="none" data-z-index="1" class="highcharts-grid-line" d="M 122.5 10 L 122.5 246" opacity="1"/><path fill="none" stroke-dasharray="none" data-z-index="1" class="highcharts-grid-line" d="M 172.5 10 L 172.5 246" opacity="1"/><path fill="none" stroke-dasharray="none" data-z-index="1" class="highcharts-grid-line" d="M 223.5 10 L 223.5 246" opacity="1"/><path fill="none" stroke-dasharray="none" data-z-index="1" class="highcharts-grid-line" d="M 273.5 10 L 273.5 246" opacity="1"/><path fill="none" stroke-dasharray="none" data-z-index="1" class="highcharts-grid-line" d="M 324.5 10 L 324.5 246" opacity="1"/><path fill="none" stroke-dasharray="none" data-z-index="1" class="highcharts-grid-line" d="M 71.5 10 L 71.5 246" opacity="1"/></g><g class="highcharts-grid highcharts-yaxis-grid" data-z-index="1"><path fill="none" stroke-dasharray="none" data-z-index="1" class="highcharts-grid-line" d="M 72 246.5 L 325 246.5" opacity="1"/><path fill="none" stroke-dasharray="none" data-z-index="1" class="highcharts-grid-line" d="M 72 187.5 L 325 187.5" opacity="1"/><path fill="none" stroke-dasharray="none" data-z-index="1" class="highcharts-grid-line" d="M 72 128.5 L 325 128.5" opacity="1"/><path fill="none" stroke-dasharray="none" data-z-index="1" class="highcharts-grid-line" d="M 72 69.5 L 325 69.5" opacity="1"/><path fill="none" stroke-dasharray="none" data-z-index="1" class="highcharts-grid-line" d="M 72 10.5 L 325 10.5" opacity="1"/></g><rect fill="none" class="highcharts-plot-border" data-z-index="1" x="72" y="10" width="253" height="236"/><g class="highcharts-axis highcharts-xaxis" data-z-index="2"><path fill="none" class="highcharts-tick" stroke="#666" stroke-width="1" d="M 122.5 246 L 122.5 256" opacity="1"/><path fill="none" class="highcharts-tick" stroke="#666" stroke-width="1" d="M 172.5 246 L 172.5 256" opacity="1"/><path fill="none" class="highcharts-tick" stroke="#666" stroke-width="1" d="M 223.5 246 L 223.5 256" opacity="1"/><path fill="none" class="highcharts-tick" stroke="#666" stroke-width="1" d="M 273.5 246 L 273.5 256" opacity="1"/><path fill="none" class="highcharts-tick" stroke="#666" stroke-width="1" d="M 325.5 246 L 325.5 256" opacity="1"/><path fill="none" class="highcharts-tick" stroke="#666" stroke-width="1" d="M 71.5 246 L 71.5 256" opacity="1"/><text x="198.5" data-z-index="7" text-anchor="middle" transform="translate(0,0)" class="highcharts-axis-title" style="color:#000000;font-family:Arial;font-size:12px;fill:#000000;" y="284.5">Number of Features</text><path fill="none" class="highcharts-axis-line" stroke="#666" stroke-width="1" data-z-index="7" d="M 72 246.5 L 325 246.5"/></g><g class="highcharts-axis highcharts-yaxis" data-z-index="2"><path fill="none" class="highcharts-tick" stroke="#666" stroke-width="1" d="M 72 246.5 L 62 246.5" opacity="1"/><path fill="none" class="highcharts-tick" stroke="#666" stroke-width="1" d="M 72 187.5 L 62 187.5" opacity="1"/><path fill="none" class="highcharts-tick" stroke="#666" stroke-width="1" d="M 72 128.5 L 62 128.5" opacity="1"/><path fill="none" class="highcharts-tick" stroke="#666" stroke-width="1" d="M 72 69.5 L 62 69.5" opacity="1"/><path fill="none" class="highcharts-tick" stroke="#666" stroke-width="1" d="M 72 9.5 L 62 9.5" opacity="1"/><text x="23.640625" data-z-index="7" text-anchor="middle" transform="translate(0,0) rotate(270 23.640625 128)" class="highcharts-axis-title" style="color:#000000;font-family:Arial;font-size:12px;fill:#000000;" y="128">Average Accuracy</text><path fill="none" class="highcharts-axis-line" stroke="#666" stroke-width="1" data-z-index="7" d="M 71.5 10 L 71.5 246"/></g><g class="highcharts-series-group" data-z-index="3"><g class="highcharts-series highcharts-series-0 highcharts-line-series highcharts-color-0" data-z-index="0.1" opacity="1" transform="translate(72,10) scale(1 1)" clip-path="url(#highcharts-8v9giky-14167-)"><path fill="none" d="M 25.3 183.73516033999994 L 75.9 85.98554036000007 L 126.5 66.4535773800001 L 177.1 44.09284642000006 L 227.7 43.73363790000002" class="highcharts-graph" data-z-index="1" stroke="#E54B34" stroke-width="1" stroke-dasharray="none"/><path fill="none" d="M 25.3 183.73516033999994 L 75.9 85.98554036000007 L 126.5 66.4535773800001 L 177.1 44.09284642000006 L 227.7 43.73363790000002" visibility="visible" data-z-index="2" class="highcharts-tracker-line" stroke-linecap="round" stroke-linejoin="round" stroke="rgba(192,192,192,0.0001)" stroke-width="21"/></g><g class="highcharts-markers highcharts-series-0 highcharts-line-series highcharts-color-0 highcharts-tracker" data-z-index="0.1" opacity="1" transform="translate(72,10) scale(1 1)" clip-path="none"><path fill="#E54B34" d="M 25 188 A 4 4 0 1 1 25.003999999333335 187.99999800000018 Z" opacity="1" class="highcharts-point highcharts-color-0"/><path fill="#E54B34" d="M 75 90 A 4 4 0 1 1 75.00399999933333 89.99999800000016 Z" opacity="1" class="highcharts-point highcharts-color-0"/><path fill="#E54B34" d="M 126 70 A 4 4 0 1 1 126.00399999933333 69.99999800000016 Z" opacity="1" class="highcharts-point highcharts-color-0"/><path fill="#E54B34" d="M 177 48 A 4 4 0 1 1 177.00399999933333 47.99999800000017 Z" opacity="1" class="highcharts-point highcharts-color-0"/><path fill="#E54B34" d="M 227 48 A 4 4 0 1 1 227.00399999933333 47.99999800000017 Z" opacity="1" class="highcharts-point highcharts-color-0"/></g><g class="highcharts-series highcharts-series-1 highcharts-line-series highcharts-color-1" data-z-index="0.1" opacity="1" transform="translate(72,10) scale(1 1)" clip-path="url(#highcharts-8v9giky-14167-)"><path fill="none" d="M 25.3 189.79680381999995 L 75.9 112.95311994000002 L 126.5 124.95966477999997 L 177.1 102.37442938000001 L 227.7 72.82952802000005" class="highcharts-graph" data-z-index="1" stroke="#4CBAD4" stroke-width="1" stroke-dasharray="none"/><path fill="none" d="M 25.3 189.79680381999995 L 75.9 112.95311994000002 L 126.5 124.95966477999997 L 177.1 102.37442938000001 L 227.7 72.82952802000005" visibility="visible" data-z-index="2" class="highcharts-tracker-line" stroke-linecap="round" stroke-linejoin="round" stroke="rgba(192,192,192,0.0001)" stroke-width="21"/></g><g class="highcharts-markers highcharts-series-1 highcharts-line-series highcharts-color-1 highcharts-tracker" data-z-index="0.1" opacity="1" transform="translate(72,10) scale(1 1)" clip-path="none"><path fill="#4CBAD4" d="M 25 186 L 29 190 L 25 194 L 21 190 Z" opacity="1" class="highcharts-point highcharts-color-1"/><path fill="#4CBAD4" d="M 75 109 L 79 113 L 75 117 L 71 113 Z" opacity="1" class="highcharts-point highcharts-color-1"/><path fill="#4CBAD4" d="M 126 121 L 130 125 L 126 129 L 122 125 Z" opacity="1" class="highcharts-point highcharts-color-1"/><path fill="#4CBAD4" d="M 177 98 L 181 102 L 177 106 L 173 102 Z" opacity="1" class="highcharts-point highcharts-color-1"/><path fill="#4CBAD4" d="M 227 69 L 231 73 L 227 77 L 223 73 Z" opacity="1" class="highcharts-point highcharts-color-1"/></g><g class="highcharts-series highcharts-series-2 highcharts-line-series highcharts-color-2" data-z-index="0.1" opacity="1" transform="translate(72,10) scale(1 1)" clip-path="url(#highcharts-8v9giky-14167-)"><path fill="none" d="M 25.3 183.73516033999994 L 75.9 102.37442938000001 L 126.5 89.39802130000007 L 177.1 85.89573764000005 L 227.7 108.43607286000002" class="highcharts-graph" data-z-index="1" stroke="#009F86" stroke-width="1" stroke-dasharray="none"/><path fill="none" d="M 25.3 183.73516033999994 L 75.9 102.37442938000001 L 126.5 89.39802130000007 L 177.1 85.89573764000005 L 227.7 108.43607286000002" visibility="visible" data-z-index="2" class="highcharts-tracker-line" stroke-linecap="round" stroke-linejoin="round" stroke="rgba(192,192,192,0.0001)" stroke-width="21"/></g><g class="highcharts-markers highcharts-series-2 highcharts-line-series highcharts-color-2 highcharts-tracker" data-z-index="0.1" opacity="1" transform="translate(72,10) scale(1 1)" clip-path="none"><path fill="#009F86" d="M 21 180 L 29 180 L 29 188 L 21 188 Z" opacity="1" class="highcharts-point highcharts-color-2"/><path fill="#009F86" d="M 71 98 L 79 98 L 79 106 L 71 106 Z" opacity="1" class="highcharts-point highcharts-color-2"/><path fill="#009F86" d="M 122 85 L 130 85 L 130 93 L 122 93 Z" opacity="1" class="highcharts-point highcharts-color-2"/><path fill="#009F86" d="M 173 82 L 181 82 L 181 90 L 173 90 Z" opacity="1" class="highcharts-point highcharts-color-2"/><path fill="#009F86" d="M 223 104 L 231 104 L 231 112 L 223 112 Z" opacity="1" class="highcharts-point highcharts-color-2"/></g><g class="highcharts-series highcharts-series-3 highcharts-line-series highcharts-color-3" data-z-index="0.1" opacity="1" transform="translate(72,10) scale(1 1)" clip-path="url(#highcharts-8v9giky-14167-)"><path fill="none" d="M 25.3 173.49771634000007 L 75.9 118.31430716000003 L 126.5 107.10161322000005 L 177.1 118.89802129999997 L 227.7 76.3318116800001" class="highcharts-graph" data-z-index="1" stroke="#3B5387" stroke-width="1" stroke-dasharray="none"/><path fill="none" d="M 25.3 173.49771634000007 L 75.9 118.31430716000003 L 126.5 107.10161322000005 L 177.1 118.89802129999997 L 227.7 76.3318116800001" visibility="visible" data-z-index="2" class="highcharts-tracker-line" stroke-linecap="round" stroke-linejoin="round" stroke="rgba(192,192,192,0.0001)" stroke-width="21"/></g><g class="highcharts-markers highcharts-series-3 highcharts-line-series highcharts-color-3 highcharts-tracker" data-z-index="0.1" opacity="1" transform="translate(72,10) scale(1 1)" clip-path="none"><path fill="#3B5387" d="M 25 169 L 29 177 L 21 177 Z" opacity="1" class="highcharts-point highcharts-color-3"/><path fill="#3B5387" d="M 75 114 L 79 122 L 71 122 Z" opacity="1" class="highcharts-point highcharts-color-3"/><path fill="#3B5387" d="M 126 103 L 130 111 L 122 111 Z" opacity="1" class="highcharts-point highcharts-color-3"/><path fill="#3B5387" d="M 177 115 L 181 123 L 173 123 Z" opacity="1" class="highcharts-point highcharts-color-3"/><path fill="#3B5387" d="M 227 72 L 231 80 L 223 80 Z" opacity="1" class="highcharts-point highcharts-color-3"/></g><g class="highcharts-series highcharts-series-4 highcharts-line-series highcharts-color-4" data-z-index="0.1" opacity="1" transform="translate(72,10) scale(1 1)" clip-path="url(#highcharts-8v9giky-14167-)"><path fill="none" d="M 25.3 190.02130943999998 L 75.9 150.91248093999997 L 126.5 76.42161322000001 L 177.1 69.59665134 L 227.7 69.77625560000007" class="highcharts-graph" data-z-index="1" stroke="#F29A7F" stroke-width="1" stroke-dasharray="none"/><path fill="none" d="M 25.3 190.02130943999998 L 75.9 150.91248093999997 L 126.5 76.42161322000001 L 177.1 69.59665134 L 227.7 69.77625560000007" visibility="visible" data-z-index="2" class="highcharts-tracker-line" stroke-linecap="round" stroke-linejoin="round" stroke="rgba(192,192,192,0.0001)" stroke-width="21"/></g><g class="highcharts-markers highcharts-series-4 highcharts-line-series highcharts-color-4 highcharts-tracker" data-z-index="0.1" opacity="1" transform="translate(72,10) scale(1 1)" clip-path="none"><path fill="#F29A7F" d="M 21 186 L 29 186 L 25 194 Z" opacity="1" class="highcharts-point highcharts-color-4"/><path fill="#F29A7F" d="M 71 147 L 79 147 L 75 155 Z" opacity="1" class="highcharts-point highcharts-color-4"/><path fill="#F29A7F" d="M 122 72 L 130 72 L 126 80 Z" opacity="1" class="highcharts-point highcharts-color-4"/><path fill="#F29A7F" d="M 173 66 L 181 66 L 177 74 Z" opacity="1" class="highcharts-point highcharts-color-4"/><path fill="#F29A7F" d="M 223 66 L 231 66 L 227 74 Z" opacity="1" class="highcharts-point highcharts-color-4"/></g><g class="highcharts-series highcharts-series-5 highcharts-line-series highcharts-color-5" data-z-index="0.1" opacity="1" transform="translate(72,10) scale(1 1)" clip-path="url(#highcharts-8v9giky-14167-)"><path fill="none" d="M 25.3 193.16438340000002 L 75.9 111.93835652000006 L 126.5 105.24809754000003 L 177.1 87.17631612000002 L 227.7 95.6841704" class="highcharts-graph" data-z-index="1" stroke="#8491B3" stroke-width="1" stroke-dasharray="none"/><path fill="none" d="M 25.3 193.16438340000002 L 75.9 111.93835652000006 L 126.5 105.24809754000003 L 177.1 87.17631612000002 L 227.7 95.6841704" visibility="visible" data-z-index="2" class="highcharts-tracker-line" stroke-linecap="round" stroke-linejoin="round" stroke="rgba(192,192,192,0.0001)" stroke-width="21"/></g><g class="highcharts-markers highcharts-series-5 highcharts-line-series highcharts-color-5 highcharts-tracker" data-z-index="0.1" opacity="1" transform="translate(72,10) scale(1 1)" clip-path="none"><path fill="#8491B3" d="M 25 197 A 4 4 0 1 1 25.003999999333335 196.99999800000018 Z" opacity="1" class="highcharts-point highcharts-color-5"/><path fill="#8491B3" d="M 75 116 A 4 4 0 1 1 75.00399999933333 115.99999800000016 Z" opacity="1" class="highcharts-point highcharts-color-5"/><path fill="#8491B3" d="M 126 109 A 4 4 0 1 1 126.00399999933333 108.99999800000016 Z" opacity="1" class="highcharts-point highcharts-color-5"/><path fill="#8491B3" d="M 177 91 A 4 4 0 1 1 177.00399999933333 90.99999800000016 Z" opacity="1" class="highcharts-point highcharts-color-5"/><path fill="#8491B3" d="M 227 100 A 4 4 0 1 1 227.00399999933333 99.99999800000016 Z" opacity="1" class="highcharts-point highcharts-color-5"/></g><g class="highcharts-series highcharts-series-6 highcharts-line-series highcharts-color-6" data-z-index="0.1" opacity="1" transform="translate(72,10) scale(1 1)" clip-path="url(#highcharts-8v9giky-14167-)"><path fill="none" d="M 25.3 199.63013676 L 75.9 109.72024326000009 L 126.5 102.68873653999998 L 177.1 63.22070070000001 L 227.7 82.57305942000005" class="highcharts-graph" data-z-index="1" stroke="#91D1C1" stroke-width="1" stroke-dasharray="none"/><path fill="none" d="M 25.3 199.63013676 L 75.9 109.72024326000009 L 126.5 102.68873653999998 L 177.1 63.22070070000001 L 227.7 82.57305942000005" visibility="visible" data-z-index="2" class="highcharts-tracker-line" stroke-linecap="round" stroke-linejoin="round" stroke="rgba(192,192,192,0.0001)" stroke-width="21"/></g><g class="highcharts-markers highcharts-series-6 highcharts-line-series highcharts-color-6 highcharts-tracker" data-z-index="0.1" opacity="1" transform="translate(72,10) scale(1 1)" clip-path="none"><path fill="#91D1C1" d="M 25 196 L 29 200 L 25 204 L 21 200 Z" opacity="1" class="highcharts-point highcharts-color-6"/><path fill="#91D1C1" d="M 75 106 L 79 110 L 75 114 L 71 110 Z" opacity="1" class="highcharts-point highcharts-color-6"/><path fill="#91D1C1" d="M 126 99 L 130 103 L 126 107 L 122 103 Z" opacity="1" class="highcharts-point highcharts-color-6"/><path fill="#91D1C1" d="M 177 59 L 181 63 L 177 67 L 173 63 Z" opacity="1" class="highcharts-point highcharts-color-6"/><path fill="#91D1C1" d="M 227 79 L 231 83 L 227 87 L 223 83 Z" opacity="1" class="highcharts-point highcharts-color-6"/></g><g class="highcharts-series highcharts-series-7 highcharts-line-series highcharts-color-7" data-z-index="0.1" opacity="1" transform="translate(72,10) scale(1 1)" clip-path="url(#highcharts-8v9giky-14167-)"><path fill="none" d="M 25.3 121.54718383999996 L 75.9 103.95494616000008 L 126.5 76.55631612000002 L 177.1 89.12861550000008 L 227.7 76.06240469999997" class="highcharts-graph" data-z-index="1" stroke="#DC0000" stroke-width="1" stroke-dasharray="none"/><path fill="none" d="M 25.3 121.54718383999996 L 75.9 103.95494616000008 L 126.5 76.55631612000002 L 177.1 89.12861550000008 L 227.7 76.06240469999997" visibility="visible" data-z-index="2" class="highcharts-tracker-line" stroke-linecap="round" stroke-linejoin="round" stroke="rgba(192,192,192,0.0001)" stroke-width="21"/></g><g class="highcharts-markers highcharts-series-7 highcharts-line-series highcharts-color-7 highcharts-tracker" data-z-index="0.1" opacity="1" transform="translate(72,10) scale(1 1)" clip-path="none"><path fill="#DC0000" d="M 21 118 L 29 118 L 29 126 L 21 126 Z" opacity="1" class="highcharts-point highcharts-color-7"/><path fill="#DC0000" d="M 71 100 L 79 100 L 79 108 L 71 108 Z" opacity="1" class="highcharts-point highcharts-color-7"/><path fill="#DC0000" d="M 122 73 L 130 73 L 130 81 L 122 81 Z" opacity="1" class="highcharts-point highcharts-color-7"/><path fill="#DC0000" d="M 173 85 L 181 85 L 181 93 L 173 93 Z" opacity="1" class="highcharts-point highcharts-color-7"/><path fill="#DC0000" d="M 223 72 L 231 72 L 231 80 L 223 80 Z" opacity="1" class="highcharts-point highcharts-color-7"/></g></g><text x="250" text-anchor="middle" class="highcharts-title" data-z-index="4" style="color:#000000;font-size:14px;font-family:Arial;fill:#000000;" y="21"/><text x="250" text-anchor="middle" class="highcharts-subtitle" data-z-index="4" style="color:#666666;fill:#666666;" y="24"/><text x="10" text-anchor="start" class="highcharts-caption" data-z-index="4" style="color:#666666;fill:#666666;" y="298"/><g class="highcharts-legend highcharts-no-tooltip" data-z-index="7" transform="translate(337,99)"><rect fill="none" class="highcharts-legend-box" rx="0" ry="0" x="0" y="0" width="152" height="99" visibility="visible"/><g data-z-index="1"><g><g class="highcharts-legend-item highcharts-line-series highcharts-color-0 highcharts-series-0" data-z-index="1" transform="translate(8,3)"><path fill="none" d="M 0 10 L 16 10" class="highcharts-graph" stroke-dasharray="none" stroke="#E54B34" stroke-width="1"/><path fill="#E54B34" d="M 8 14 A 4 4 0 1 1 8.003999999333336 13.999998000000167 Z" class="highcharts-point" opacity="1"/><text x="21" style="color:#000000;cursor:pointer;font-size:10px;font-weight:bold;font-family:Arial;fill:#000000;" text-anchor="start" data-z-index="2" y="13">GWO</text></g><g class="highcharts-legend-item highcharts-line-series highcharts-color-1 highcharts-series-1" data-z-index="1" transform="translate(8,14)"><path fill="none" d="M 0 10 L 16 10" class="highcharts-graph" stroke-dasharray="none" stroke="#4CBAD4" stroke-width="1"/><path fill="#4CBAD4" d="M 8 6 L 12 10 L 8 14 L 4 10 Z" class="highcharts-point" opacity="1"/><text x="21" y="13" style="color:#000000;cursor:pointer;font-size:10px;font-weight:bold;font-family:Arial;fill:#000000;" text-anchor="start" data-z-index="2">Uniform</text></g><g class="highcharts-legend-item highcharts-line-series highcharts-color-2 highcharts-series-2" data-z-index="1" transform="translate(8,25)"><path fill="none" d="M 0 10 L 16 10" class="highcharts-graph" stroke-dasharray="none" stroke="#009F86" stroke-width="1"/><path fill="#009F86" d="M 4 6 L 12 6 L 12 14 L 4 14 Z" class="highcharts-point" opacity="1"/><text x="21" y="13" style="color:#000000;cursor:pointer;font-size:10px;font-weight:bold;font-family:Arial;fill:#000000;" text-anchor="start" data-z-index="2">Onepoint</text></g><g class="highcharts-legend-item highcharts-line-series highcharts-color-3 highcharts-series-3" data-z-index="1" transform="translate(8,36)"><path fill="none" d="M 0 10 L 16 10" class="highcharts-graph" stroke-dasharray="none" stroke="#3B5387" stroke-width="1"/><path fill="#3B5387" d="M 8 6 L 12 14 L 4 14 Z" class="highcharts-point" opacity="1"/><text x="21" y="13" style="color:#000000;cursor:pointer;font-size:10px;font-weight:bold;font-family:Arial;fill:#000000;" text-anchor="start" data-z-index="2">Twopoint</text></g><g class="highcharts-legend-item highcharts-line-series highcharts-color-4 highcharts-series-4" data-z-index="1" transform="translate(8,47)"><path fill="none" d="M 0 10 L 16 10" class="highcharts-graph" stroke-dasharray="none" stroke="#F29A7F" stroke-width="1"/><path fill="#F29A7F" d="M 4 6 L 12 6 L 8 14 Z" class="highcharts-point" opacity="1"/><text x="21" y="13" style="color:#000000;cursor:pointer;font-size:10px;font-weight:bold;font-family:Arial;fill:#000000;" text-anchor="start" data-z-index="2">Partialymatched</text></g><g class="highcharts-legend-item highcharts-line-series highcharts-color-5 highcharts-series-5" data-z-index="1" transform="translate(8,58)"><path fill="none" d="M 0 10 L 16 10" class="highcharts-graph" stroke-dasharray="none" stroke="#8491B3" stroke-width="1"/><path fill="#8491B3" d="M 8 14 A 4 4 0 1 1 8.003999999333336 13.999998000000167 Z" class="highcharts-point" opacity="1"/><text x="21" y="13" style="color:#000000;cursor:pointer;font-size:10px;font-weight:bold;font-family:Arial;fill:#000000;" text-anchor="start" data-z-index="2">UniformPartialymatched</text></g><g class="highcharts-legend-item highcharts-line-series highcharts-color-6 highcharts-series-6" data-z-index="1" transform="translate(8,69)"><path fill="none" d="M 0 10 L 16 10" class="highcharts-graph" stroke-dasharray="none" stroke="#91D1C1" stroke-width="1"/><path fill="#91D1C1" d="M 8 6 L 12 10 L 8 14 L 4 10 Z" class="highcharts-point" opacity="1"/><text x="21" y="13" style="color:#000000;cursor:pointer;font-size:10px;font-weight:bold;font-family:Arial;fill:#000000;" text-anchor="start" data-z-index="2">Ordered</text></g><g class="highcharts-legend-item highcharts-line-series highcharts-color-7 highcharts-series-7" data-z-index="1" transform="translate(8,80)"><path fill="none" d="M 0 10 L 16 10" class="highcharts-graph" stroke-dasharray="none" stroke="#DC0000" stroke-width="1"/><path fill="#DC0000" d="M 4 6 L 12 6 L 12 14 L 4 14 Z" class="highcharts-point" opacity="1"/><text x="21" y="13" style="color:#000000;cursor:pointer;font-size:10px;font-weight:bold;font-family:Arial;fill:#000000;" text-anchor="start" data-z-index="2">SimulateBinary</text></g></g></g></g><g class="highcharts-axis-labels highcharts-xaxis-labels" data-z-index="7"><text x="97.3" style="color:#000000;cursor:default;font-size:12px;font-family:Arial;fill:#000000;" text-anchor="middle" transform="translate(0,0)" y="266" opacity="1">1</text><text x="147.89999999999998" style="color:#000000;cursor:default;font-size:12px;font-family:Arial;fill:#000000;" text-anchor="middle" transform="translate(0,0)" y="266" opacity="1">3</text><text x="198.5" style="color:#000000;cursor:default;font-size:12px;font-family:Arial;fill:#000000;" text-anchor="middle" transform="translate(0,0)" y="266" opacity="1">5</text><text x="249.09999999999997" style="color:#000000;cursor:default;font-size:12px;font-family:Arial;fill:#000000;" text-anchor="middle" transform="translate(0,0)" y="266" opacity="1">7</text><text x="299.7" style="color:#000000;cursor:default;font-size:12px;font-family:Arial;fill:#000000;" text-anchor="middle" transform="translate(0,0)" y="266" opacity="1">9</text></g><g class="highcharts-axis-labels highcharts-yaxis-labels" data-z-index="7"><text x="57" style="color:#000000;cursor:default;font-size:12px;font-family:Arial;fill:#000000;" text-anchor="end" transform="translate(0,0)" y="251" opacity="1">0.6</text><text x="57" style="color:#000000;cursor:default;font-size:12px;font-family:Arial;fill:#000000;" text-anchor="end" transform="translate(0,0)" y="192" opacity="1">0.65</text><text x="57" style="color:#000000;cursor:default;font-size:12px;font-family:Arial;fill:#000000;" text-anchor="end" transform="translate(0,0)" y="133" opacity="1">0.7</text><text x="57" style="color:#000000;cursor:default;font-size:12px;font-family:Arial;fill:#000000;" text-anchor="end" transform="translate(0,0)" y="74" opacity="1">0.75</text><text x="57" style="color:#000000;cursor:default;font-size:12px;font-family:Arial;fill:#000000;" text-anchor="end" transform="translate(0,0)" y="15" opacity="1">0.8</text></g></svg>