<svg version="1.1" class="highcharts-root" style="font-family:&quot;Lucida Grande&quot;, &quot;Lucida Sans Unicode&quot;, Arial, Helvetica, sans-serif;font-size:12px;" xmlns="http://www.w3.org/2000/svg" width="500" height="301" viewBox="0 0 500 301"><rect fill="#ffffff" class="highcharts-background" x="0.0" y="0.0" width="500" height="301" rx="0" ry="0"/><desc>Created with Highcharts 9.3.1</desc><defs><clipPath id="highcharts-8v9giky-15646-"><rect x="0" y="0" width="253" height="236" fill="none"/></clipPath><clipPath id="highcharts-8v9giky-15652-"><rect x="0" y="0" width="253" height="236" fill="none"/></clipPath></defs><rect fill="#ffffff" class="highcharts-background" x="0" y="0" width="500" height="301" rx="0" ry="0"/><rect fill="none" class="highcharts-plot-background" x="72" y="10" width="253" height="236"/><g class="highcharts-pane-group" data-z-index="0"/><g class="highcharts-grid highcharts-xaxis-grid" data-z-index="1"><path fill="none" stroke-dasharray="none" data-z-index="1" class="highcharts-grid-line" d="M 122.5 10 L 122.5 246" opacity="1"/><path fill="none" stroke-dasharray="none" data-z-index="1" class="highcharts-grid-line" d="M 172.5 10 L 172.5 246" opacity="1"/><path fill="none" stroke-dasharray="none" data-z-index="1" class="highcharts-grid-line" d="M 223.5 10 L 223.5 246" opacity="1"/><path fill="none" stroke-dasharray="none" data-z-index="1" class="highcharts-grid-line" d="M 273.5 10 L 273.5 246" opacity="1"/><path fill="none" stroke-dasharray="none" data-z-index="1" class="highcharts-grid-line" d="M 324.5 10 L 324.5 246" opacity="1"/><path fill="none" stroke-dasharray="none" data-z-index="1" class="highcharts-grid-line" d="M 71.5 10 L 71.5 246" opacity="1"/></g><g class="highcharts-grid highcharts-yaxis-grid" data-z-index="1"><path fill="none" stroke-dasharray="none" data-z-index="1" class="highcharts-grid-line" d="M 72 246.5 L 325 246.5" opacity="1"/><path fill="none" stroke-dasharray="none" data-z-index="1" class="highcharts-grid-line" d="M 72 187.5 L 325 187.5" opacity="1"/><path fill="none" stroke-dasharray="none" data-z-index="1" class="highcharts-grid-line" d="M 72 128.5 L 325 128.5" opacity="1"/><path fill="none" stroke-dasharray="none" data-z-index="1" class="highcharts-grid-line" d="M 72 69.5 L 325 69.5" opacity="1"/><path fill="none" stroke-dasharray="none" data-z-index="1" class="highcharts-grid-line" d="M 72 10.5 L 325 10.5" opacity="1"/></g><rect fill="none" class="highcharts-plot-border" data-z-index="1" x="72" y="10" width="253" height="236"/><g class="highcharts-axis highcharts-xaxis" data-z-index="2"><path fill="none" class="highcharts-tick" stroke="#666" stroke-width="1" d="M 122.5 246 L 122.5 256" opacity="1"/><path fill="none" class="highcharts-tick" stroke="#666" stroke-width="1" d="M 172.5 246 L 172.5 256" opacity="1"/><path fill="none" class="highcharts-tick" stroke="#666" stroke-width="1" d="M 223.5 246 L 223.5 256" opacity="1"/><path fill="none" class="highcharts-tick" stroke="#666" stroke-width="1" d="M 273.5 246 L 273.5 256" opacity="1"/><path fill="none" class="highcharts-tick" stroke="#666" stroke-width="1" d="M 325.5 246 L 325.5 256" opacity="1"/><path fill="none" class="highcharts-tick" stroke="#666" stroke-width="1" d="M 71.5 246 L 71.5 256" opacity="1"/><text x="198.5" data-z-index="7" text-anchor="middle" transform="translate(0,0)" class="highcharts-axis-title" style="color:#000000;font-family:Arial;font-size:12px;fill:#000000;" y="284.5">Number of Features</text><path fill="none" class="highcharts-axis-line" stroke="#666" stroke-width="1" data-z-index="7" d="M 72 246.5 L 325 246.5"/></g><g class="highcharts-axis highcharts-yaxis" data-z-index="2"><path fill="none" class="highcharts-tick" stroke="#666" stroke-width="1" d="M 72 246.5 L 62 246.5" opacity="1"/><path fill="none" class="highcharts-tick" stroke="#666" stroke-width="1" d="M 72 187.5 L 62 187.5" opacity="1"/><path fill="none" class="highcharts-tick" stroke="#666" stroke-width="1" d="M 72 128.5 L 62 128.5" opacity="1"/><path fill="none" class="highcharts-tick" stroke="#666" stroke-width="1" d="M 72 69.5 L 62 69.5" opacity="1"/><path fill="none" class="highcharts-tick" stroke="#666" stroke-width="1" d="M 72 9.5 L 62 9.5" opacity="1"/><text x="23.640625" data-z-index="7" text-anchor="middle" transform="translate(0,0) rotate(270 23.640625 128)" class="highcharts-axis-title" style="color:#000000;font-family:Arial;font-size:12px;fill:#000000;" y="128">Average F1 Score</text><path fill="none" class="highcharts-axis-line" stroke="#666" stroke-width="1" data-z-index="7" d="M 71.5 10 L 71.5 246"/></g><g class="highcharts-series-group" data-z-index="3"><g class="highcharts-series highcharts-series-0 highcharts-line-series highcharts-color-0" data-z-index="0.1" opacity="1" transform="translate(72,10) scale(1 1)" clip-path="url(#highcharts-8v9giky-15652-)"><path fill="none" d="M 25.3 181.52570710000003 L 75.9 84.92287248000008 L 126.5 64.83886066000002 L 177.1 41.98637296000007 L 227.7 42.070023160000005" class="highcharts-graph" data-z-index="1" stroke="#E54B34" stroke-width="1" stroke-dasharray="none"/><path fill="none" d="M 25.3 181.52570710000003 L 75.9 84.92287248000008 L 126.5 64.83886066000002 L 177.1 41.98637296000007 L 227.7 42.070023160000005" visibility="visible" data-z-index="2" class="highcharts-tracker-line" stroke-linecap="round" stroke-linejoin="round" stroke="rgba(192,192,192,0.0001)" stroke-width="21"/></g><g class="highcharts-markers highcharts-series-0 highcharts-line-series highcharts-color-0 highcharts-tracker" data-z-index="0.1" opacity="1" transform="translate(72,10) scale(1 1)" clip-path="none"><path fill="#E54B34" d="M 25 186 A 4 4 0 1 1 25.003999999333335 185.99999800000018 Z" opacity="1" class="highcharts-point highcharts-color-0"/><path fill="#E54B34" d="M 75 89 A 4 4 0 1 1 75.00399999933333 88.99999800000016 Z" opacity="1" class="highcharts-point highcharts-color-0"/><path fill="#E54B34" d="M 126 69 A 4 4 0 1 1 126.00399999933333 68.99999800000016 Z" opacity="1" class="highcharts-point highcharts-color-0"/><path fill="#E54B34" d="M 177 46 A 4 4 0 1 1 177.00399999933333 45.99999800000017 Z" opacity="1" class="highcharts-point highcharts-color-0"/><path fill="#E54B34" d="M 227 46 A 4 4 0 1 1 227.00399999933333 45.99999800000017 Z" opacity="1" class="highcharts-point highcharts-color-0"/></g><g class="highcharts-series highcharts-series-1 highcharts-line-series highcharts-color-1" data-z-index="0.1" opacity="1" transform="translate(72,10) scale(1 1)" clip-path="url(#highcharts-8v9giky-15652-)"><path fill="none" d="M 25.3 190.54422644000005 L 75.9 108.10997278000005 L 126.5 123.67453739999999 L 177.1 101.82635359999998 L 227.7 68.29033588000001" class="highcharts-graph" data-z-index="1" stroke="#4CBAD4" stroke-width="1" stroke-dasharray="none"/><path fill="none" d="M 25.3 190.54422644000005 L 75.9 108.10997278000005 L 126.5 123.67453739999999 L 177.1 101.82635359999998 L 227.7 68.29033588000001" visibility="visible" data-z-index="2" class="highcharts-tracker-line" stroke-linecap="round" stroke-linejoin="round" stroke="rgba(192,192,192,0.0001)" stroke-width="21"/></g><g class="highcharts-markers highcharts-series-1 highcharts-line-series highcharts-color-1 highcharts-tracker" data-z-index="0.1" opacity="1" transform="translate(72,10) scale(1 1)" clip-path="none"><path fill="#4CBAD4" d="M 25 187 L 29 191 L 25 195 L 21 191 Z" opacity="1" class="highcharts-point highcharts-color-1"/><path fill="#4CBAD4" d="M 75 104 L 79 108 L 75 112 L 71 108 Z" opacity="1" class="highcharts-point highcharts-color-1"/><path fill="#4CBAD4" d="M 126 120 L 130 124 L 126 128 L 122 124 Z" opacity="1" class="highcharts-point highcharts-color-1"/><path fill="#4CBAD4" d="M 177 98 L 181 102 L 177 106 L 173 102 Z" opacity="1" class="highcharts-point highcharts-color-1"/><path fill="#4CBAD4" d="M 227 64 L 231 68 L 227 72 L 223 68 Z" opacity="1" class="highcharts-point highcharts-color-1"/></g><g class="highcharts-series highcharts-series-2 highcharts-line-series highcharts-color-2" data-z-index="0.1" opacity="1" transform="translate(72,10) scale(1 1)" clip-path="url(#highcharts-8v9giky-15652-)"><path fill="none" d="M 25.3 181.52570710000003 L 75.9 97.74290578000009 L 126.5 86.87438126000006 L 177.1 84.92938254000003 L 227.7 102.08635008000005" class="highcharts-graph" data-z-index="1" stroke="#009F86" stroke-width="1" stroke-dasharray="none"/><path fill="none" d="M 25.3 181.52570710000003 L 75.9 97.74290578000009 L 126.5 86.87438126000006 L 177.1 84.92938254000003 L 227.7 102.08635008000005" visibility="visible" data-z-index="2" class="highcharts-tracker-line" stroke-linecap="round" stroke-linejoin="round" stroke="rgba(192,192,192,0.0001)" stroke-width="21"/></g><g class="highcharts-markers highcharts-series-2 highcharts-line-series highcharts-color-2 highcharts-tracker" data-z-index="0.1" opacity="1" transform="translate(72,10) scale(1 1)" clip-path="none"><path fill="#009F86" d="M 21 178 L 29 178 L 29 186 L 21 186 Z" opacity="1" class="highcharts-point highcharts-color-2"/><path fill="#009F86" d="M 71 94 L 79 94 L 79 102 L 71 102 Z" opacity="1" class="highcharts-point highcharts-color-2"/><path fill="#009F86" d="M 122 83 L 130 83 L 130 91 L 122 91 Z" opacity="1" class="highcharts-point highcharts-color-2"/><path fill="#009F86" d="M 173 81 L 181 81 L 181 89 L 173 89 Z" opacity="1" class="highcharts-point highcharts-color-2"/><path fill="#009F86" d="M 223 98 L 231 98 L 231 106 L 223 106 Z" opacity="1" class="highcharts-point highcharts-color-2"/></g><g class="highcharts-series highcharts-series-3 highcharts-line-series highcharts-color-3" data-z-index="0.1" opacity="1" transform="translate(72,10) scale(1 1)" clip-path="url(#highcharts-8v9giky-15652-)"><path fill="none" d="M 25.3 173.46820925999992 L 75.9 116.89417244 L 126.5 102.35581488000008 L 177.1 116.01129526000007 L 227.7 71.28709928000004" class="highcharts-graph" data-z-index="1" stroke="#3B5387" stroke-width="1" stroke-dasharray="none"/><path fill="none" d="M 25.3 173.46820925999992 L 75.9 116.89417244 L 126.5 102.35581488000008 L 177.1 116.01129526000007 L 227.7 71.28709928000004" visibility="visible" data-z-index="2" class="highcharts-tracker-line" stroke-linecap="round" stroke-linejoin="round" stroke="rgba(192,192,192,0.0001)" stroke-width="21"/></g><g class="highcharts-markers highcharts-series-3 highcharts-line-series highcharts-color-3 highcharts-tracker" data-z-index="0.1" opacity="1" transform="translate(72,10) scale(1 1)" clip-path="none"><path fill="#3B5387" d="M 25 169 L 29 177 L 21 177 Z" opacity="1" class="highcharts-point highcharts-color-3"/><path fill="#3B5387" d="M 75 113 L 79 121 L 71 121 Z" opacity="1" class="highcharts-point highcharts-color-3"/><path fill="#3B5387" d="M 126 98 L 130 106 L 122 106 Z" opacity="1" class="highcharts-point highcharts-color-3"/><path fill="#3B5387" d="M 177 112 L 181 120 L 173 120 Z" opacity="1" class="highcharts-point highcharts-color-3"/><path fill="#3B5387" d="M 227 67 L 231 75 L 223 75 Z" opacity="1" class="highcharts-point highcharts-color-3"/></g><g class="highcharts-series highcharts-series-4 highcharts-line-series highcharts-color-4" data-z-index="0.1" opacity="1" transform="translate(72,10) scale(1 1)" clip-path="url(#highcharts-8v9giky-15652-)"><path fill="none" d="M 25.3 188.93141188000004 L 75.9 149.57055780000002 L 126.5 72.68413195999997 L 177.1 66.56732348 L 227.7 65.4569918600001" class="highcharts-graph" data-z-index="1" stroke="#F29A7F" stroke-width="1" stroke-dasharray="none"/><path fill="none" d="M 25.3 188.93141188000004 L 75.9 149.57055780000002 L 126.5 72.68413195999997 L 177.1 66.56732348 L 227.7 65.4569918600001" visibility="visible" data-z-index="2" class="highcharts-tracker-line" stroke-linecap="round" stroke-linejoin="round" stroke="rgba(192,192,192,0.0001)" stroke-width="21"/></g><g class="highcharts-markers highcharts-series-4 highcharts-line-series highcharts-color-4 highcharts-tracker" data-z-index="0.1" opacity="1" transform="translate(72,10) scale(1 1)" clip-path="none"><path fill="#F29A7F" d="M 21 185 L 29 185 L 25 193 Z" opacity="1" class="highcharts-point highcharts-color-4"/><path fill="#F29A7F" d="M 71 146 L 79 146 L 75 154 Z" opacity="1" class="highcharts-point highcharts-color-4"/><path fill="#F29A7F" d="M 122 69 L 130 69 L 126 77 Z" opacity="1" class="highcharts-point highcharts-color-4"/><path fill="#F29A7F" d="M 173 63 L 181 63 L 177 71 Z" opacity="1" class="highcharts-point highcharts-color-4"/><path fill="#F29A7F" d="M 223 61 L 231 61 L 227 69 Z" opacity="1" class="highcharts-point highcharts-color-4"/></g><g class="highcharts-series highcharts-series-5 highcharts-line-series highcharts-color-5" data-z-index="0.1" opacity="1" transform="translate(72,10) scale(1 1)" clip-path="url(#highcharts-8v9giky-15652-)"><path fill="none" d="M 25.3 192.13249228 L 75.9 110.33363558000002 L 126.5 104.46787682000001 L 177.1 85.47400210000006 L 227.7 93.14524700000004" class="highcharts-graph" data-z-index="1" stroke="#8491B3" stroke-width="1" stroke-dasharray="none"/><path fill="none" d="M 25.3 192.13249228 L 75.9 110.33363558000002 L 126.5 104.46787682000001 L 177.1 85.47400210000006 L 227.7 93.14524700000004" visibility="visible" data-z-index="2" class="highcharts-tracker-line" stroke-linecap="round" stroke-linejoin="round" stroke="rgba(192,192,192,0.0001)" stroke-width="21"/></g><g class="highcharts-markers highcharts-series-5 highcharts-line-series highcharts-color-5 highcharts-tracker" data-z-index="0.1" opacity="1" transform="translate(72,10) scale(1 1)" clip-path="none"><path fill="#8491B3" d="M 25 196 A 4 4 0 1 1 25.003999999333335 195.99999800000018 Z" opacity="1" class="highcharts-point highcharts-color-5"/><path fill="#8491B3" d="M 75 114 A 4 4 0 1 1 75.00399999933333 113.99999800000016 Z" opacity="1" class="highcharts-point highcharts-color-5"/><path fill="#8491B3" d="M 126 108 A 4 4 0 1 1 126.00399999933333 107.99999800000016 Z" opacity="1" class="highcharts-point highcharts-color-5"/><path fill="#8491B3" d="M 177 89 A 4 4 0 1 1 177.00399999933333 88.99999800000016 Z" opacity="1" class="highcharts-point highcharts-color-5"/><path fill="#8491B3" d="M 227 97 A 4 4 0 1 1 227.00399999933333 96.99999800000016 Z" opacity="1" class="highcharts-point highcharts-color-5"/></g><g class="highcharts-series highcharts-series-6 highcharts-line-series highcharts-color-6" data-z-index="0.1" opacity="1" transform="translate(72,10) scale(1 1)" clip-path="url(#highcharts-8v9giky-15652-)"><path fill="none" d="M 25.3 198.21510554000002 L 75.9 106.74515056000001 L 126.5 98.86952494000008 L 177.1 61.223719439999996 L 227.7 73.78021508" class="highcharts-graph" data-z-index="1" stroke="#91D1C1" stroke-width="1" stroke-dasharray="none"/><path fill="none" d="M 25.3 198.21510554000002 L 75.9 106.74515056000001 L 126.5 98.86952494000008 L 177.1 61.223719439999996 L 227.7 73.78021508" visibility="visible" data-z-index="2" class="highcharts-tracker-line" stroke-linecap="round" stroke-linejoin="round" stroke="rgba(192,192,192,0.0001)" stroke-width="21"/></g><g class="highcharts-markers highcharts-series-6 highcharts-line-series highcharts-color-6 highcharts-tracker" data-z-index="0.1" opacity="1" transform="translate(72,10) scale(1 1)" clip-path="none"><path fill="#91D1C1" d="M 25 194 L 29 198 L 25 202 L 21 198 Z" opacity="1" class="highcharts-point highcharts-color-6"/><path fill="#91D1C1" d="M 75 103 L 79 107 L 75 111 L 71 107 Z" opacity="1" class="highcharts-point highcharts-color-6"/><path fill="#91D1C1" d="M 126 95 L 130 99 L 126 103 L 122 99 Z" opacity="1" class="highcharts-point highcharts-color-6"/><path fill="#91D1C1" d="M 177 57 L 181 61 L 177 65 L 173 61 Z" opacity="1" class="highcharts-point highcharts-color-6"/><path fill="#91D1C1" d="M 227 70 L 231 74 L 227 78 L 223 74 Z" opacity="1" class="highcharts-point highcharts-color-6"/></g><g class="highcharts-series highcharts-series-7 highcharts-line-series highcharts-color-7" data-z-index="0.1" opacity="1" transform="translate(72,10) scale(1 1)" clip-path="url(#highcharts-8v9giky-15652-)"><path fill="none" d="M 25.3 114.28096804000005 L 75.9 98.85114644000004 L 126.5 74.76541124000008 L 177.1 86.73538787999996 L 227.7 74.37047704" class="highcharts-graph" data-z-index="1" stroke="#DC0000" stroke-width="1" stroke-dasharray="none"/><path fill="none" d="M 25.3 114.28096804000005 L 75.9 98.85114644000004 L 126.5 74.76541124000008 L 177.1 86.73538787999996 L 227.7 74.37047704" visibility="visible" data-z-index="2" class="highcharts-tracker-line" stroke-linecap="round" stroke-linejoin="round" stroke="rgba(192,192,192,0.0001)" stroke-width="21"/></g><g class="highcharts-markers highcharts-series-7 highcharts-line-series highcharts-color-7 highcharts-tracker" data-z-index="0.1" opacity="1" transform="translate(72,10) scale(1 1)" clip-path="none"><path fill="#DC0000" d="M 21 110 L 29 110 L 29 118 L 21 118 Z" opacity="1" class="highcharts-point highcharts-color-7"/><path fill="#DC0000" d="M 71 95 L 79 95 L 79 103 L 71 103 Z" opacity="1" class="highcharts-point highcharts-color-7"/><path fill="#DC0000" d="M 122 71 L 130 71 L 130 79 L 122 79 Z" opacity="1" class="highcharts-point highcharts-color-7"/><path fill="#DC0000" d="M 173 83 L 181 83 L 181 91 L 173 91 Z" opacity="1" class="highcharts-point highcharts-color-7"/><path fill="#DC0000" d="M 223 70 L 231 70 L 231 78 L 223 78 Z" opacity="1" class="highcharts-point highcharts-color-7"/></g></g><text x="250" text-anchor="middle" class="highcharts-title" data-z-index="4" style="color:#000000;font-size:14px;font-family:Arial;fill:#000000;" y="21"/><text x="250" text-anchor="middle" class="highcharts-subtitle" data-z-index="4" style="color:#666666;fill:#666666;" y="24"/><text x="10" text-anchor="start" class="highcharts-caption" data-z-index="4" style="color:#666666;fill:#666666;" y="298"/><g class="highcharts-legend highcharts-no-tooltip" data-z-index="7" transform="translate(337,99)"><rect fill="none" class="highcharts-legend-box" rx="0" ry="0" x="0" y="0" width="152" height="99" visibility="visible"/><g data-z-index="1"><g><g class="highcharts-legend-item highcharts-line-series highcharts-color-0 highcharts-series-0" data-z-index="1" transform="translate(8,3)"><path fill="none" d="M 0 10 L 16 10" class="highcharts-graph" stroke-dasharray="none" stroke="#E54B34" stroke-width="1"/><path fill="#E54B34" d="M 8 14 A 4 4 0 1 1 8.003999999333336 13.999998000000167 Z" class="highcharts-point" opacity="1"/><text x="21" style="color:#000000;cursor:pointer;font-size:10px;font-weight:bold;font-family:Arial;fill:#000000;" text-anchor="start" data-z-index="2" y="13">GWO</text></g><g class="highcharts-legend-item highcharts-line-series highcharts-color-1 highcharts-series-1" data-z-index="1" transform="translate(8,14)"><path fill="none" d="M 0 10 L 16 10" class="highcharts-graph" stroke-dasharray="none" stroke="#4CBAD4" stroke-width="1"/><path fill="#4CBAD4" d="M 8 6 L 12 10 L 8 14 L 4 10 Z" class="highcharts-point" opacity="1"/><text x="21" y="13" style="color:#000000;cursor:pointer;font-size:10px;font-weight:bold;font-family:Arial;fill:#000000;" text-anchor="start" data-z-index="2">Uniform</text></g><g class="highcharts-legend-item highcharts-line-series highcharts-color-2 highcharts-series-2" data-z-index="1" transform="translate(8,25)"><path fill="none" d="M 0 10 L 16 10" class="highcharts-graph" stroke-dasharray="none" stroke="#009F86" stroke-width="1"/><path fill="#009F86" d="M 4 6 L 12 6 L 12 14 L 4 14 Z" class="highcharts-point" opacity="1"/><text x="21" y="13" style="color:#000000;cursor:pointer;font-size:10px;font-weight:bold;font-family:Arial;fill:#000000;" text-anchor="start" data-z-index="2">Onepoint</text></g><g class="highcharts-legend-item highcharts-line-series highcharts-color-3 highcharts-series-3" data-z-index="1" transform="translate(8,36)"><path fill="none" d="M 0 10 L 16 10" class="highcharts-graph" stroke-dasharray="none" stroke="#3B5387" stroke-width="1"/><path fill="#3B5387" d="M 8 6 L 12 14 L 4 14 Z" class="highcharts-point" opacity="1"/><text x="21" y="13" style="color:#000000;cursor:pointer;font-size:10px;font-weight:bold;font-family:Arial;fill:#000000;" text-anchor="start" data-z-index="2">Twopoint</text></g><g class="highcharts-legend-item highcharts-line-series highcharts-color-4 highcharts-series-4" data-z-index="1" transform="translate(8,47)"><path fill="none" d="M 0 10 L 16 10" class="highcharts-graph" stroke-dasharray="none" stroke="#F29A7F" stroke-width="1"/><path fill="#F29A7F" d="M 4 6 L 12 6 L 8 14 Z" class="highcharts-point" opacity="1"/><text x="21" y="13" style="color:#000000;cursor:pointer;font-size:10px;font-weight:bold;font-family:Arial;fill:#000000;" text-anchor="start" data-z-index="2">Partialymatched</text></g><g class="highcharts-legend-item highcharts-line-series highcharts-color-5 highcharts-series-5" data-z-index="1" transform="translate(8,58)"><path fill="none" d="M 0 10 L 16 10" class="highcharts-graph" stroke-dasharray="none" stroke="#8491B3" stroke-width="1"/><path fill="#8491B3" d="M 8 14 A 4 4 0 1 1 8.003999999333336 13.999998000000167 Z" class="highcharts-point" opacity="1"/><text x="21" y="13" style="color:#000000;cursor:pointer;font-size:10px;font-weight:bold;font-family:Arial;fill:#000000;" text-anchor="start" data-z-index="2">UniformPartialymatched</text></g><g class="highcharts-legend-item highcharts-line-series highcharts-color-6 highcharts-series-6" data-z-index="1" transform="translate(8,69)"><path fill="none" d="M 0 10 L 16 10" class="highcharts-graph" stroke-dasharray="none" stroke="#91D1C1" stroke-width="1"/><path fill="#91D1C1" d="M 8 6 L 12 10 L 8 14 L 4 10 Z" class="highcharts-point" opacity="1"/><text x="21" y="13" style="color:#000000;cursor:pointer;font-size:10px;font-weight:bold;font-family:Arial;fill:#000000;" text-anchor="start" data-z-index="2">Ordered</text></g><g class="highcharts-legend-item highcharts-line-series highcharts-color-7 highcharts-series-7" data-z-index="1" transform="translate(8,80)"><path fill="none" d="M 0 10 L 16 10" class="highcharts-graph" stroke-dasharray="none" stroke="#DC0000" stroke-width="1"/><path fill="#DC0000" d="M 4 6 L 12 6 L 12 14 L 4 14 Z" class="highcharts-point" opacity="1"/><text x="21" y="13" style="color:#000000;cursor:pointer;font-size:10px;font-weight:bold;font-family:Arial;fill:#000000;" text-anchor="start" data-z-index="2">SimulateBinary</text></g></g></g></g><g class="highcharts-axis-labels highcharts-xaxis-labels" data-z-index="7"><text x="97.3" style="color:#000000;cursor:default;font-size:12px;font-family:Arial;fill:#000000;" text-anchor="middle" transform="translate(0,0)" y="266" opacity="1">1</text><text x="147.89999999999998" style="color:#000000;cursor:default;font-size:12px;font-family:Arial;fill:#000000;" text-anchor="middle" transform="translate(0,0)" y="266" opacity="1">3</text><text x="198.5" style="color:#000000;cursor:default;font-size:12px;font-family:Arial;fill:#000000;" text-anchor="middle" transform="translate(0,0)" y="266" opacity="1">5</text><text x="249.09999999999997" style="color:#000000;cursor:default;font-size:12px;font-family:Arial;fill:#000000;" text-anchor="middle" transform="translate(0,0)" y="266" opacity="1">7</text><text x="299.7" style="color:#000000;cursor:default;font-size:12px;font-family:Arial;fill:#000000;" text-anchor="middle" transform="translate(0,0)" y="266" opacity="1">9</text></g><g class="highcharts-axis-labels highcharts-yaxis-labels" data-z-index="7"><text x="57" style="color:#000000;cursor:default;font-size:12px;font-family:Arial;fill:#000000;" text-anchor="end" transform="translate(0,0)" y="251" opacity="1">0.6</text><text x="57" style="color:#000000;cursor:default;font-size:12px;font-family:Arial;fill:#000000;" text-anchor="end" transform="translate(0,0)" y="192" opacity="1">0.65</text><text x="57" style="color:#000000;cursor:default;font-size:12px;font-family:Arial;fill:#000000;" text-anchor="end" transform="translate(0,0)" y="133" opacity="1">0.7</text><text x="57" style="color:#000000;cursor:default;font-size:12px;font-family:Arial;fill:#000000;" text-anchor="end" transform="translate(0,0)" y="74" opacity="1">0.75</text><text x="57" style="color:#000000;cursor:default;font-size:12px;font-family:Arial;fill:#000000;" text-anchor="end" transform="translate(0,0)" y="15" opacity="1">0.8</text></g></svg>