<svg id="Layer_1" data-name="Layer 1" xmlns="http://www.w3.org/2000/svg" xmlns:xlink="http://www.w3.org/1999/xlink" viewBox="0 0 1223.32 737.95"><defs><style>.cls-1,.cls-3,.cls-4{fill:none;}.cls-2{fill:#fff;}.cls-3{stroke:#e6e6e6;}.cls-4{stroke:#999;}.cls-5{clip-path:url(#clip-path);}.cls-6{fill:#e54b34;}.cls-7{fill:#4cbad4;}.cls-8{fill:#009f86;}.cls-9{fill:#3b5387;}.cls-10{fill:#f29a7f;}.cls-11{fill:#8491b3;}.cls-12{fill:#91d1c1;}.cls-13,.cls-16{isolation:isolate;}.cls-13{font-size:14px;fill:#666;font-family:ArialMT, Arial;}.cls-14{clip-path:url(#clip-path-8);}.cls-15{clip-path:url(#clip-path-15);}.cls-16{font-size:12px;fill:#333;font-family:Arial-BoldMT, Arial;font-weight:700;}.cls-17{letter-spacing:-0.04em;}.cls-18{letter-spacing:-0.06em;}.cls-19{clip-path:url(#clip-path-22);}</style><clipPath id="clip-path"><rect class="cls-1" x="44" y="41" width="546" height="256"/></clipPath><clipPath id="clip-path-8"><rect class="cls-1" x="667.32" y="42" width="546" height="256"/></clipPath><clipPath id="clip-path-15"><rect class="cls-1" x="44" y="371.95" width="546" height="256"/></clipPath><clipPath id="clip-path-22"><rect class="cls-1" x="660.51" y="372.95" width="546" height="256"/></clipPath></defs><rect class="cls-2" width="600" height="400"/><rect class="cls-1" x="44" y="41" width="546" height="256"/><path class="cls-3" d="M316.5,41V297"/><path class="cls-3" d="M590.5,41V297"/><path class="cls-3" d="M43.5,41V297"/><path class="cls-3" d="M44,297.5H590"/><path class="cls-3" d="M44,246.5H590"/><path class="cls-3" d="M44,195.5H590"/><path class="cls-3" d="M44,143.5H590"/><path class="cls-3" d="M44,92.5H590"/><path class="cls-3" d="M44,40.5H590"/><rect class="cls-1" x="44" y="41" width="546" height="256"/><path class="cls-4" d="M316.5,297v10"/><path class="cls-4" d="M590.5,297v10"/><path class="cls-4" d="M43.5,297v10"/><path class="cls-4" d="M44,297.5H590"/><path class="cls-4" d="M44,297.5H34"/><path class="cls-4" d="M44,246.5H34"/><path class="cls-4" d="M44,195.5H34"/><path class="cls-4" d="M44,143.5H34"/><path class="cls-4" d="M44,92.5H34"/><path class="cls-4" d="M44,40.5H34"/><path class="cls-4" d="M43.5,41V297"/><g class="cls-5"><rect class="cls-6" x="102" y="110" width="17" height="188"/><rect class="cls-6" x="375" y="112" width="17" height="186"/></g><g class="cls-5"><rect class="cls-7" x="126" y="102" width="17" height="196"/><rect class="cls-7" x="399" y="104" width="17" height="194"/></g><g class="cls-5"><rect class="cls-8" x="149" y="102" width="17" height="196"/><rect class="cls-8" x="422" y="105" width="17" height="193"/></g><g class="cls-5"><rect class="cls-9" x="172" y="108" width="17" height="190"/><rect class="cls-9" x="445" y="110" width="17" height="188"/></g><g class="cls-5"><rect class="cls-10" x="196" y="108" width="17" height="190"/><rect class="cls-10" x="469" y="110" width="17" height="188"/></g><g class="cls-5"><rect class="cls-11" x="219" y="115" width="17" height="183"/><rect class="cls-11" x="492" y="118" width="17" height="180"/></g><g class="cls-5"><rect class="cls-12" x="243" y="114" width="17" height="184"/><rect class="cls-12" x="516" y="104" width="17" height="194"/></g><text class="cls-13" transform="translate(265.75 21)">GSE15222</text><text class="cls-13" transform="translate(132.26 319)">Mean Precision</text><text class="cls-13" transform="translate(414.59 319)">Mean Recall</text><text class="cls-13" transform="translate(21.21 303)">0</text><text class="cls-13" transform="translate(9.54 252)">0.2</text><text class="cls-13" transform="translate(9.54 201)">0.4</text><text class="cls-13" transform="translate(9.54 150)">0.6</text><text class="cls-13" transform="translate(9.54 98)">0.8</text><text class="cls-13" transform="translate(21.21 47)">1</text><rect class="cls-2" x="623.32" width="600" height="349"/><rect class="cls-1" x="667.32" y="42" width="546" height="256"/><path class="cls-3" d="M939.82,42V298"/><path class="cls-3" d="M1213.82,42V298"/><path class="cls-3" d="M666.82,42V298"/><path class="cls-3" d="M667.32,298.5h546"/><path class="cls-3" d="M667.32,247.5h546"/><path class="cls-3" d="M667.32,196.5h546"/><path class="cls-3" d="M667.32,144.5h546"/><path class="cls-3" d="M667.32,93.5h546"/><path class="cls-3" d="M667.32,41.5h546"/><rect class="cls-1" x="667.32" y="42" width="546" height="256"/><path class="cls-4" d="M939.82,298v10"/><path class="cls-4" d="M1213.82,298v10"/><path class="cls-4" d="M666.82,298v10"/><path class="cls-4" d="M667.32,298.5h546"/><path class="cls-4" d="M667.32,298.5h-10"/><path class="cls-4" d="M667.32,247.5h-10"/><path class="cls-4" d="M667.32,196.5h-10"/><path class="cls-4" d="M667.32,144.5h-10"/><path class="cls-4" d="M667.32,93.5h-10"/><path class="cls-4" d="M667.32,41.5h-10"/><path class="cls-4" d="M666.82,42V298"/><g class="cls-14"><rect class="cls-6" x="725.32" y="72" width="17" height="227"/><rect class="cls-6" x="998.32" y="75" width="17" height="224"/></g><g class="cls-14"><rect class="cls-7" x="749.32" y="62" width="17" height="237"/><rect class="cls-7" x="1022.32" y="66" width="17" height="233"/></g><g class="cls-14"><rect class="cls-8" x="772.32" y="83" width="17" height="216"/><rect class="cls-8" x="1045.32" y="88" width="17" height="211"/></g><g class="cls-14"><rect class="cls-9" x="795.32" y="68" width="17" height="231"/><rect class="cls-9" x="1068.32" y="71" width="17" height="228"/></g><g class="cls-14"><rect class="cls-10" x="819.32" y="70" width="17" height="229"/><rect class="cls-10" x="1092.32" y="79" width="17" height="220"/></g><g class="cls-14"><rect class="cls-11" x="842.32" y="62" width="17" height="237"/><rect class="cls-11" x="1115.32" y="66" width="17" height="233"/></g><g class="cls-14"><rect class="cls-12" x="866.32" y="118" width="17" height="181"/><rect class="cls-12" x="1139.32" y="119" width="17" height="180"/></g><text class="cls-13" transform="translate(885.18 22)">GSE173955</text><text class="cls-13" transform="translate(755.57 320)">Mean Precision</text><text class="cls-13" transform="translate(1037.91 320)">Mean Recall</text><text class="cls-13" transform="translate(644.53 304)">0</text><text class="cls-13" transform="translate(632.85 253)">0.2</text><text class="cls-13" transform="translate(632.85 202)">0.4</text><text class="cls-13" transform="translate(632.85 151)">0.6</text><text class="cls-13" transform="translate(632.85 99)">0.8</text><text class="cls-13" transform="translate(644.53 48)">1</text><rect class="cls-2" x="1" y="330.95" width="600" height="400"/><rect class="cls-1" x="44" y="371.95" width="546" height="256"/><path class="cls-3" d="M316.5,372V628"/><path class="cls-3" d="M590.5,372V628"/><path class="cls-3" d="M43.5,372V628"/><path class="cls-3" d="M44,628.45H590"/><path class="cls-3" d="M44,596.45H590"/><path class="cls-3" d="M44,564.45H590"/><path class="cls-3" d="M44,532.45H590"/><path class="cls-3" d="M44,500.45H590"/><path class="cls-3" d="M44,468.45H590"/><path class="cls-3" d="M44,436.45H590"/><path class="cls-3" d="M44,404.45H590"/><path class="cls-3" d="M44,371.45H590"/><rect class="cls-1" x="44" y="371.95" width="546" height="256"/><path class="cls-4" d="M316.5,628v10"/><path class="cls-4" d="M590.5,628v10"/><path class="cls-4" d="M43.5,628v10"/><path class="cls-4" d="M44,628.45H590"/><path class="cls-4" d="M44,628.45H34"/><path class="cls-4" d="M44,596.45H34"/><path class="cls-4" d="M44,564.45H34"/><path class="cls-4" d="M44,532.45H34"/><path class="cls-4" d="M44,500.45H34"/><path class="cls-4" d="M44,468.45H34"/><path class="cls-4" d="M44,436.45H34"/><path class="cls-4" d="M44,404.45H34"/><path class="cls-4" d="M44,371.45H34"/><path class="cls-4" d="M43.5,372V628"/><g class="cls-15"><rect class="cls-6" x="102" y="417.95" width="17" height="211"/><rect class="cls-6" x="375" y="437.95" width="17" height="191"/></g><g class="cls-15"><rect class="cls-7" x="126" y="405.95" width="17" height="223"/><rect class="cls-7" x="399" y="415.95" width="17" height="213"/></g><g class="cls-15"><rect class="cls-8" x="149" y="458.95" width="17" height="170"/><rect class="cls-8" x="422" y="459.95" width="17" height="169"/></g><g class="cls-15"><rect class="cls-9" x="172" y="427.95" width="17" height="201"/><rect class="cls-9" x="445" y="428.95" width="17" height="200"/></g><g class="cls-15"><rect class="cls-10" x="196" y="410.95" width="17" height="218"/><rect class="cls-10" x="469" y="410.95" width="17" height="218"/></g><g class="cls-15"><rect class="cls-11" x="219" y="430.95" width="17" height="198"/><rect class="cls-11" x="492" y="423.95" width="17" height="205"/></g><g class="cls-15"><rect class="cls-12" x="243" y="417.95" width="17" height="211"/><rect class="cls-12" x="516" y="424.95" width="17" height="204"/></g><text class="cls-13" transform="translate(261.86 351.95)">GSE203206</text><rect class="cls-1" x="61" y="662.95" width="478" height="53"/><text class="cls-16" transform="translate(90 680.95)">No FS</text><path class="cls-6" d="M77,670h0a6,6,0,0,1,6,6h0a6,6,0,0,1-6,6h0a6,6,0,0,1-6-6h0A6,6,0,0,1,77,670Z"/><text class="cls-16" transform="translate(250.94 680.95)">GWOG<tspan class="cls-17" x="39.33" y="0">A</tspan></text><path class="cls-7" d="M237.94,670h0a6,6,0,0,1,6,6h0a6,6,0,0,1-6,6h0a6,6,0,0,1-6-6h0A6,6,0,0,1,237.94,670Z"/><text class="cls-16" transform="translate(411.88 680.95)"><tspan class="cls-18">V</tspan><tspan x="7.34" y="0">ariance Threshold</tspan></text><path class="cls-8" d="M398.88,670h0a6,6,0,0,1,6,6h0a6,6,0,0,1-6,6h0a6,6,0,0,1-6-6h0A6,6,0,0,1,398.88,670Z"/><text class="cls-16" transform="translate(90 694.95)">Select K Best</text><path class="cls-9" d="M77,684h0a6,6,0,0,1,6,6h0a6,6,0,0,1-6,6h0a6,6,0,0,1-6-6h0A6,6,0,0,1,77,684Z"/><text class="cls-16" transform="translate(250.94 694.95)">RFE</text><path class="cls-10" d="M237.94,684h0a6,6,0,0,1,6,6h0a6,6,0,0,1-6,6h0a6,6,0,0,1-6-6h0A6,6,0,0,1,237.94,684Z"/><text class="cls-16" transform="translate(411.88 694.95)">BPSO</text><path class="cls-11" d="M398.88,684h0a6,6,0,0,1,6,6h0a6,6,0,0,1-6,6h0a6,6,0,0,1-6-6h0A6,6,0,0,1,398.88,684Z"/><text class="cls-16" transform="translate(90 708.95)">S<tspan class="cls-17" x="8" y="0">A</tspan></text><path class="cls-12" d="M77,698h0a6,6,0,0,1,6,6h0a6,6,0,0,1-6,6h0a6,6,0,0,1-6-6h0A6,6,0,0,1,77,698Z"/><text class="cls-13" transform="translate(132.26 649.95)">Mean Precision</text><text class="cls-13" transform="translate(414.59 649.95)">Mean Recall</text><text class="cls-13" transform="translate(21.21 633.95)">0</text><text class="cls-13" transform="translate(9.54 601.95)">0.1</text><text class="cls-13" transform="translate(9.54 569.95)">0.2</text><text class="cls-13" transform="translate(9.54 537.95)">0.3</text><text class="cls-13" transform="translate(9.54 505.95)">0.4</text><text class="cls-13" transform="translate(9.54 473.95)">0.5</text><text class="cls-13" transform="translate(9.54 441.95)">0.6</text><text class="cls-13" transform="translate(9.54 409.95)">0.7</text><text class="cls-13" transform="translate(9.54 377.95)">0.8</text><rect class="cls-2" x="616.51" y="337.95" width="600" height="400"/><rect class="cls-1" x="660.51" y="372.95" width="546" height="256"/><path class="cls-3" d="M933,373V629"/><path class="cls-3" d="M1207,373V629"/><path class="cls-3" d="M660,373V629"/><path class="cls-3" d="M660.51,629.45h546"/><path class="cls-3" d="M660.51,578.45h546"/><path class="cls-3" d="M660.51,527.45h546"/><path class="cls-3" d="M660.51,475.45h546"/><path class="cls-3" d="M660.51,424.45h546"/><path class="cls-3" d="M660.51,372.45h546"/><rect class="cls-1" x="660.51" y="372.95" width="546" height="256"/><path class="cls-4" d="M933,629v10"/><path class="cls-4" d="M1207,629v10"/><path class="cls-4" d="M660,629v10"/><path class="cls-4" d="M660.51,629.45h546"/><path class="cls-4" d="M660.51,629.45h-10"/><path class="cls-4" d="M660.51,578.45h-10"/><path class="cls-4" d="M660.51,527.45h-10"/><path class="cls-4" d="M660.51,475.45h-10"/><path class="cls-4" d="M660.51,424.45h-10"/><path class="cls-4" d="M660.51,372.45h-10"/><path class="cls-4" d="M660,373V629"/><g class="cls-19"><rect class="cls-6" x="718.51" y="461.95" width="17" height="168"/><rect class="cls-6" x="991.51" y="458.95" width="17" height="171"/></g><g class="cls-19"><rect class="cls-7" x="742.51" y="437.95" width="17" height="192"/><rect class="cls-7" x="1015.51" y="446.95" width="17" height="183"/></g><g class="cls-19"><rect class="cls-8" x="765.51" y="467.95" width="17" height="162"/><rect class="cls-8" x="1038.51" y="475.95" width="17" height="154"/></g><g class="cls-19"><rect class="cls-9" x="788.51" y="429.95" width="17" height="200"/><rect class="cls-9" x="1061.51" y="441.95" width="17" height="188"/></g><g class="cls-19"><rect class="cls-10" x="812.51" y="429.95" width="17" height="200"/><rect class="cls-10" x="1085.51" y="441.95" width="17" height="188"/></g><g class="cls-19"><rect class="cls-11" x="835.51" y="479.95" width="17" height="150"/><rect class="cls-11" x="1108.51" y="450.95" width="17" height="179"/></g><g class="cls-19"><rect class="cls-12" x="859.51" y="448.95" width="17" height="181"/><rect class="cls-12" x="1132.51" y="449.95" width="17" height="180"/></g><text class="cls-13" transform="translate(883.16 357.95)">GSE1297</text><rect class="cls-1" x="677.51" y="663.95" width="478" height="53"/><text class="cls-16" transform="translate(706.51 681.95)">No FS</text><path class="cls-6" d="M693.51,671h0a6,6,0,0,1,6,6h0a6,6,0,0,1-6,6h0a6,6,0,0,1-6-6h0A6,6,0,0,1,693.51,671Z"/><text class="cls-16" transform="translate(867.45 681.95)">GWOG<tspan class="cls-17" x="39.33" y="0">A</tspan></text><path class="cls-7" d="M854.45,671h0a6,6,0,0,1,6,6h0a6,6,0,0,1-6,6h0a6,6,0,0,1-6-6h0A6,6,0,0,1,854.45,671Z"/><text class="cls-16" transform="translate(1028.39 681.95)"><tspan class="cls-18">V</tspan><tspan x="7.34" y="0">ariance Threshold</tspan></text><path class="cls-8" d="M1015.39,671h0a6,6,0,0,1,6,6h0a6,6,0,0,1-6,6h0a6,6,0,0,1-6-6h0A6,6,0,0,1,1015.39,671Z"/><text class="cls-16" transform="translate(706.51 695.95)">Select K Best</text><path class="cls-9" d="M693.51,685h0a6,6,0,0,1,6,6h0a6,6,0,0,1-6,6h0a6,6,0,0,1-6-6h0A6,6,0,0,1,693.51,685Z"/><text class="cls-16" transform="translate(867.45 695.95)">RFE</text><path class="cls-10" d="M854.45,685h0a6,6,0,0,1,6,6h0a6,6,0,0,1-6,6h0a6,6,0,0,1-6-6h0A6,6,0,0,1,854.45,685Z"/><text class="cls-16" transform="translate(1028.39 695.95)">BPSO</text><path class="cls-11" d="M1015.39,685h0a6,6,0,0,1,6,6h0a6,6,0,0,1-6,6h0a6,6,0,0,1-6-6h0A6,6,0,0,1,1015.39,685Z"/><text class="cls-16" transform="translate(706.51 709.95)">S<tspan class="cls-17" x="8" y="0">A</tspan></text><path class="cls-12" d="M693.51,699h0a6,6,0,0,1,6,6h0a6,6,0,0,1-6,6h0a6,6,0,0,1-6-6h0A6,6,0,0,1,693.51,699Z"/><text class="cls-13" transform="translate(748.77 650.95)">Mean Precision</text><text class="cls-13" transform="translate(1031.11 650.95)">Mean Recall</text><text class="cls-13" transform="translate(637.73 634.95)">0</text><text class="cls-13" transform="translate(626.05 583.95)">0.2</text><text class="cls-13" transform="translate(626.05 532.95)">0.4</text><text class="cls-13" transform="translate(626.05 481.95)">0.6</text><text class="cls-13" transform="translate(626.05 429.95)">0.8</text><text class="cls-13" transform="translate(637.73 378.95)">1</text></svg>